<svg width="220" height="192" viewBox="0 0 220 192" fill="none" xmlns="http://www.w3.org/2000/svg">
<g clip-path="url(#clip0_363_844)">
<path d="M20.1536 171.236C19.7551 168.671 18.9776 166.179 17.8466 163.842L17.6818 163.501L16.4572 164.857L17.3645 162.837L17.3052 162.72C16.5045 161.138 15.6171 159.6 14.6471 158.115L14.4672 157.84L14.2272 158.106L14.3952 157.732L14.3111 157.606C13.1096 155.806 12.1866 154.669 12.1775 154.657L11.9165 154.336L11.7486 154.719C11.7178 154.789 8.66707 161.808 8.26295 168.744L8.25657 168.852L10.3098 171.33L8.21588 170.017L8.21951 170.494C8.22588 171.309 8.28144 172.123 8.38589 172.931C8.4781 173.627 8.58664 174.306 8.7115 174.968C8.90943 174.975 9.10194 175.034 9.26827 175.142C9.12363 174.402 8.99889 173.641 8.89404 172.859C8.81317 172.236 8.76221 171.602 8.74193 170.97L12.792 173.509L8.78124 168.668C9.14642 162.804 11.413 156.896 12.0493 155.337C12.3908 155.779 13.035 156.637 13.8057 157.784L12.4047 160.903L14.4021 158.691C15.268 160.037 16.0657 161.426 16.7921 162.852L14.6347 167.654L17.5516 164.424C18.5704 166.612 19.2756 168.932 19.6465 171.316C20.157 175.166 20.0574 178.865 19.3658 181.731C18.7034 184.477 17.5361 186.164 16.1629 186.361C15.8802 186.4 15.5927 186.383 15.3167 186.311C15.0954 186.468 14.829 186.549 14.5576 186.542H14.4828C14.9087 186.778 15.3862 186.906 15.8733 186.915C15.9937 186.915 16.1138 186.907 16.233 186.889C17.8474 186.658 19.1367 184.872 19.8632 181.861C20.5702 178.93 20.6738 175.159 20.1536 171.236Z" fill="#E6E6E6"/>
<path d="M15.6352 186.713C13.5234 186.713 10.4785 185.553 7.45848 183.442C7.01395 183.128 6.58949 182.788 6.18757 182.421L5.84931 182.113L7.12824 181.745L5.4253 181.683L5.35344 181.608C2.16138 178.27 0.175014 173.555 0.155234 173.508L0 173.135L0.403608 173.154C0.443794 173.155 1.40336 173.201 2.84554 173.405L2.93542 173.417V173.417L3.25165 173.465C4.42931 173.643 5.59595 173.888 6.74604 174.198L6.86885 174.231L7.25255 175.175L7.19435 174.328L7.54638 174.43C9.21488 174.911 10.7996 175.644 12.2453 176.605C16.8381 179.816 19.3795 183.83 18.0361 185.745C17.5768 186.4 16.7316 186.713 15.6352 186.713ZM6.88136 182.349C7.16191 182.586 7.45384 182.812 7.7533 183.023C11.9598 185.964 16.4763 187.076 17.6159 185.452C18.7552 183.827 16.1633 179.97 11.9563 177.028C10.6583 176.166 9.24423 175.492 7.75643 175.028L7.98389 178.334L6.48964 174.659C5.50553 174.399 4.49877 174.184 3.49088 174.02L3.65599 176.42L2.62756 173.891C1.83074 173.782 1.1884 173.723 0.797682 173.692C1.33036 174.86 3.09051 178.467 5.65275 181.179L10.3523 181.351L6.88136 182.349Z" fill="#E6E6E6"/>
<path d="M83.164 186.424H0.0864868V186.998H83.164V186.424Z" fill="#3F3D56"/>
<path d="M199.26 44.2736H198.234V16.2306C198.234 14.0991 197.814 11.9886 196.997 10.0194C196.18 8.05023 194.983 6.26098 193.473 4.75383C191.964 3.24669 190.172 2.05115 188.2 1.23549C186.227 0.419821 184.114 2.35328e-06 181.979 0H122.475C118.164 -9.50514e-06 114.029 1.70998 110.981 4.75379C107.932 7.7976 106.22 11.9259 106.22 16.2305V170.077C106.22 174.382 107.932 178.51 110.981 181.554C114.029 184.597 118.164 186.307 122.475 186.307H181.979C186.29 186.308 190.425 184.598 193.473 181.554C196.522 178.51 198.234 174.382 198.234 170.077V64.2352H199.26L199.26 44.2736Z" fill="#E6E6E6"/>
<path d="M182.635 4.22267H174.868C175.225 5.09705 175.361 6.04573 175.265 6.98513C175.168 7.92453 174.842 8.82581 174.314 9.60958C173.787 10.3934 173.074 11.0356 172.239 11.4796C171.405 11.9237 170.474 12.156 169.528 12.1561H135.439C134.493 12.156 133.562 11.9237 132.727 11.4796C131.892 11.0356 131.18 10.3934 130.652 9.60959C130.125 8.82581 129.798 7.92452 129.702 6.98512C129.605 6.04572 129.742 5.09704 130.099 4.22266H122.844C121.25 4.22265 119.672 4.53617 118.199 5.14529C116.726 5.75442 115.388 6.64723 114.261 7.77274C113.133 8.89826 112.239 10.2344 111.629 11.705C111.019 13.1756 110.705 14.7517 110.705 16.3434V169.964C110.705 171.556 111.019 173.132 111.629 174.603C112.239 176.073 113.133 177.409 114.261 178.535C115.388 179.66 116.726 180.553 118.199 181.162C119.672 181.771 121.25 182.085 122.844 182.085H182.635C184.229 182.085 185.808 181.771 187.28 181.162C188.753 180.553 190.091 179.66 191.219 178.535C192.346 177.409 193.24 176.073 193.85 174.603C194.46 173.132 194.774 171.556 194.774 169.964V16.3435C194.774 14.7517 194.46 13.1756 193.85 11.705C193.24 10.2345 192.346 8.89828 191.219 7.77276C190.091 6.64724 188.753 5.75443 187.28 5.14531C185.808 4.53618 184.229 4.22267 182.635 4.22267H182.635Z" fill="white"/>
<path d="M154.365 62.7246C150.663 62.7246 147.045 61.6286 143.967 59.5752C140.889 57.5218 138.49 54.6032 137.074 51.1885C135.657 47.7737 135.286 44.0163 136.009 40.3912C136.731 36.7662 138.513 33.4364 141.131 30.8229C143.748 28.2093 147.083 26.4295 150.714 25.7085C154.344 24.9874 158.108 25.3575 161.527 26.7719C164.947 28.1863 167.87 30.5815 169.927 33.6547C171.984 36.7279 173.081 40.3409 173.081 44.037C173.076 48.9916 171.102 53.7416 167.593 57.245C164.085 60.7484 159.327 62.719 154.365 62.7246ZM154.365 25.8614C150.765 25.8614 147.245 26.9273 144.252 28.9245C141.258 30.9217 138.925 33.7603 137.547 37.0815C136.17 40.4027 135.809 44.0572 136.511 47.5829C137.214 51.1086 138.948 54.3472 141.493 56.8891C144.039 59.431 147.283 61.1621 150.814 61.8634C154.345 62.5647 158.005 62.2048 161.331 60.8291C164.658 59.4534 167.5 57.1238 169.501 54.1349C171.501 51.1459 172.569 47.6318 172.569 44.037C172.563 39.2182 170.643 34.5983 167.231 31.1909C163.818 27.7835 159.191 25.8668 154.365 25.8614Z" fill="#3F3D56"/>
<path d="M150.776 170.499C148.9 170.499 147.065 169.943 145.505 168.902C143.945 167.862 142.73 166.382 142.012 164.651C141.294 162.921 141.106 161.016 141.472 159.179C141.838 157.342 142.741 155.654 144.068 154.329C145.395 153.005 147.085 152.102 148.925 151.737C150.765 151.371 152.673 151.559 154.406 152.276C156.139 152.993 157.621 154.207 158.663 155.764C159.706 157.322 160.262 159.153 160.262 161.027C160.259 163.538 159.259 165.946 157.48 167.721C155.702 169.497 153.291 170.496 150.776 170.499ZM150.776 152.067C149.001 152.067 147.266 152.592 145.79 153.577C144.315 154.561 143.164 155.961 142.485 157.598C141.806 159.235 141.628 161.037 141.975 162.775C142.321 164.513 143.176 166.109 144.43 167.362C145.685 168.615 147.284 169.469 149.025 169.814C150.766 170.16 152.57 169.983 154.21 169.305C155.849 168.626 157.251 167.478 158.237 166.005C159.223 164.531 159.749 162.799 159.749 161.027C159.747 158.651 158.8 156.374 157.118 154.694C155.436 153.014 153.155 152.07 150.776 152.067Z" fill="#3F3D56"/>
<path d="M220 114.793H181.65V76.5017H220V114.793ZM182.163 114.281H219.487V77.0137H182.163V114.281Z" fill="#3F3D56"/>
<path d="M139.011 135.273H118.215V114.508H139.011V135.273ZM118.727 134.761H138.498V115.02H118.727V134.761Z" fill="#3F3D56"/>
<path d="M22.1207 61.5326C26.7833 61.5326 30.5631 57.7586 30.5631 53.1031C30.5631 48.4476 26.7833 44.6736 22.1207 44.6736C17.4581 44.6736 13.6783 48.4476 13.6783 53.1031C13.6783 57.7586 17.4581 61.5326 22.1207 61.5326Z" fill="#2F2E41"/>
<path d="M36.1914 73.1732C41.7421 73.1732 46.2418 68.6804 46.2418 63.1381C46.2418 57.5959 41.7421 53.103 36.1914 53.103C30.6407 53.103 26.1409 57.5959 26.1409 63.1381C26.1409 68.6804 30.6407 73.1732 36.1914 73.1732Z" fill="#2F2E41"/>
<path d="M47.7781 149.511L42.8486 158.219C42.8486 158.219 36.4023 151.783 39.815 150.079L45.1237 148.375L47.7781 149.511Z" fill="#FFB8B8"/>
<path d="M39.0566 172.796L40.5733 179.233L36.023 180.747L34.5062 173.364L39.0566 172.796Z" fill="#FFB8B8"/>
<path d="M48.5445 107.835L49.5217 117.793C49.5217 117.793 67.1169 133.988 61.0498 140.046C54.9827 146.104 47.3989 151.026 47.3989 151.026L43.9861 148.565L51.7596 137.964L36.0231 126.795L39.6254 173.554L34.1271 175.068L21.8034 127.741C21.8034 127.741 18.0114 112.597 27.3017 105.024L48.5445 107.835Z" fill="#2F2E41"/>
<path d="M37.3503 179.043C37.3503 179.043 40.1942 175.447 41.5214 178.665C42.396 180.878 43.0934 183.157 43.607 185.48C43.607 185.48 48.5365 192.863 40.9526 191.916C33.3688 190.97 35.6439 187.562 35.6439 187.562C35.2405 187.302 34.9194 186.932 34.7181 186.496C34.5167 186.061 34.4433 185.577 34.5063 185.101C34.6959 183.397 35.6439 179.422 35.6439 179.422C35.6439 179.422 36.5919 177.718 37.3503 179.043Z" fill="#2F2E41"/>
<path d="M45.2185 154.339C45.2185 154.339 46.8301 155.948 44.1757 158.598C44.1757 158.598 43.7965 165.981 40.3838 165.224C36.9711 164.467 35.8335 155.191 36.2127 154.244C36.5919 153.298 35.6439 146.293 37.9191 146.483C40.1942 146.672 43.0382 149.133 43.0382 149.133C43.0382 149.133 38.1087 153.676 42.8486 156.705C42.8486 156.705 44.0809 156.232 45.2185 154.339Z" fill="#2F2E41"/>
<path d="M31.0936 81.1717L45.5029 81.5504C42.3276 77.051 41.73 71.7433 43.0382 65.8379L33.5584 67.731C35.3839 72.5506 35.4154 76.6847 31.0936 81.1717Z" fill="#FFB8B8"/>
<path d="M26.5433 105.592L48.9157 111.839L53.2093 82.3057C53.1217 80.9779 52.5704 79.7228 51.6514 78.759C50.7325 77.7953 49.504 77.1839 48.1801 77.0314L43.0382 76.439L33.748 77.3855L29.354 78.6254C28.1227 78.9728 27.0452 79.7256 26.2965 80.7616C25.5477 81.7975 25.1717 83.0558 25.2294 84.332L26.5433 105.592Z" fill="#FFF2EB"/>
<path d="M47.9677 106.16L51.57 110.325L60.2914 101.049L57.049 84.9965C56.6622 83.0818 55.7134 81.3253 54.3233 79.9509C52.9333 78.5766 51.1649 77.6464 49.2436 77.2791L46.8301 76.8176L52.1388 98.3986L47.9677 106.16Z" fill="#FFF2EB"/>
<path d="M48.1464 112.014L50.8116 108.432L48.5365 106.16L44.8411 107.123C44.3189 107.259 43.8407 107.527 43.4529 107.902C43.0652 108.277 42.781 108.745 42.6279 109.262C42.4749 109.779 42.4582 110.327 42.5795 110.852C42.7007 111.377 42.9558 111.862 43.32 112.26C43.6316 112.6 44.0148 112.867 44.442 113.042C44.8692 113.217 45.3299 113.296 45.7911 113.273C46.2523 113.249 46.7027 113.124 47.1099 112.907C47.517 112.689 47.871 112.384 48.1464 112.014Z" fill="#FFB8B8"/>
<path d="M30.5248 107.296L26.9225 111.461L18.201 102.185L21.4435 86.1322C21.8302 84.2175 22.7791 82.4611 24.1691 81.0867C25.5592 79.7123 27.3275 78.7822 29.2489 78.4148L31.6624 77.9534L26.3537 99.5344L30.5248 107.296Z" fill="#FFF2EB"/>
<path d="M30.3461 113.15L27.6808 109.568L29.956 107.296L33.6513 108.258C34.1736 108.394 34.6518 108.663 35.0396 109.038C35.4273 109.413 35.7115 109.881 35.8645 110.398C36.0176 110.915 36.0343 111.462 35.913 111.987C35.7918 112.513 35.5367 112.998 35.1725 113.395C34.8609 113.736 34.4777 114.003 34.0505 114.178C33.6233 114.353 33.1626 114.432 32.7014 114.408C32.2401 114.385 31.7898 114.26 31.3826 114.042C30.9754 113.825 30.6215 113.52 30.3461 113.15Z" fill="#FFB8B8"/>
<path d="M37.5809 70.5221C41.2161 70.5221 44.163 67.5797 44.163 63.95C44.163 60.3204 41.2161 57.3779 37.5809 57.3779C33.9457 57.3779 30.9988 60.3204 30.9988 63.95C30.9988 67.5797 33.9457 70.5221 37.5809 70.5221Z" fill="#FFB8B8"/>
<path d="M44.6337 63.339H33.3772L29.9601 58.7228C33.3219 55.7847 37.5294 55.2581 42.2216 56.1137L44.6337 63.339Z" fill="#2F2E41"/>
<path d="M144.11 56.3249C152.606 56.3249 159.493 49.4481 159.493 40.9652C159.493 32.4822 152.606 25.6055 144.11 25.6055C135.614 25.6055 128.727 32.4822 128.727 40.9652C128.727 49.4481 135.614 56.3249 144.11 56.3249Z" fill="#E6E6E6"/>
<path d="M209.233 69.9363H175.6V103.518H209.233V69.9363Z" fill="#FFF2EB"/>
<path d="M124.105 129.11H142.135V111.108H124.105V129.11Z" fill="#E6E6E6"/>
<path d="M145.648 167.17C149.896 167.17 153.34 163.732 153.34 159.491C153.34 155.249 149.896 151.811 145.648 151.811C141.4 151.811 137.956 155.249 137.956 159.491C137.956 163.732 141.4 167.17 145.648 167.17Z" fill="#FFF2EB"/>
</g>
<defs>
<clipPath id="clip0_363_844">
<rect width="220" height="192" fill="white"/>
</clipPath>
</defs>
</svg>
