<svg width="220" height="232" viewBox="0 0 220 232" fill="none" xmlns="http://www.w3.org/2000/svg">
<g clip-path="url(#clip0_363_786)">
<path d="M114.442 184.134L107.262 183.739L108.251 205.777L113.117 206.045L114.442 184.134Z" fill="#A0616A"/>
<path d="M107.614 198.81L110.109 199.942V201.453C110.109 201.453 110.707 199.703 113.935 199.314L114.323 200.779C114.323 200.779 115.578 202.214 115.369 204.814L114.562 211.779L112.127 211.728L111.724 206.884C111.724 206.884 111.051 205.786 107.973 211.017C107.973 211.017 106.838 212.746 101.564 210.99C100.839 210.748 100.335 210.073 100.343 209.309C100.347 208.887 100.511 208.497 101.039 208.356C102.384 207.998 103.699 208.446 104.566 207.37C105.432 206.294 107.614 198.81 107.614 198.81L107.614 198.81H107.614Z" fill="#2F2E41"/>
<path d="M96.4669 204.355L89.2866 203.96L90.2755 225.998L95.141 226.265L96.4669 204.355Z" fill="#A0616A"/>
<path d="M89.6384 219.031L92.1338 220.163V221.674C92.1338 221.674 92.7315 219.924 95.959 219.535L96.3475 221C96.3475 221 97.6027 222.434 97.3935 225.035L96.5866 232L94.1518 231.949L93.7482 227.105C93.7482 227.105 93.0752 226.007 89.997 231.238C89.997 231.238 88.8625 232.967 83.5888 231.211C82.864 230.969 82.3594 230.294 82.3672 229.53C82.3715 229.108 82.5355 228.718 83.0638 228.577C84.4086 228.219 85.7235 228.667 86.5902 227.591C87.4568 226.515 89.6384 219.031 89.6384 219.031L89.6384 219.031H89.6384Z" fill="#2F2E41"/>
<path d="M186.573 138.503C186.255 137.966 184.876 138.541 184.623 138.053C184.371 137.567 185.651 136.827 186.383 135.136C186.515 134.831 187.346 132.909 186.73 132.316C185.564 131.192 180.225 135.831 178.357 134.313C177.947 133.979 177.661 133.314 176.42 132.235C175.926 131.805 175.628 131.611 175.339 131.683C174.929 131.786 174.896 132.334 174.457 133.413C173.798 135.031 173.408 134.934 173.024 136.225C172.739 137.183 172.804 137.74 172.468 137.849C171.993 138.003 171.556 136.986 170.955 137.077C170.341 137.17 169.97 138.354 169.852 139.24C169.632 140.903 170.243 142 170.581 143.154C170.949 144.408 171.167 146.315 170.318 149.014L161.912 172.704C163.768 167.843 169.141 154.518 171.399 149.566C172.051 148.136 172.77 146.686 174.248 146.114C175.671 145.563 177.625 145.892 180.116 145.292C180.407 145.222 181.214 145.016 181.316 144.541C181.4 144.149 180.925 143.929 180.998 143.562C181.096 143.068 182.029 143.062 183.177 142.493C183.986 142.092 184.49 141.615 184.924 141.204C185.055 141.08 186.997 139.218 186.573 138.503H186.573Z" fill="#F2F2F2"/>
<path d="M153.502 150.974C153.146 150.976 153.031 151.818 152.718 151.802C152.407 151.786 152.413 150.943 151.795 150.096C151.683 149.943 150.98 148.981 150.511 149.112C149.623 149.36 150.359 153.32 149.075 153.799C148.793 153.904 148.384 153.853 147.496 154.15C147.143 154.269 146.962 154.359 146.914 154.522C146.846 154.753 147.106 154.927 147.508 155.454C148.112 156.245 147.952 156.408 148.474 156.969C148.862 157.385 149.155 157.514 149.111 157.71C149.05 157.988 148.425 157.909 148.296 158.23C148.164 158.559 148.638 159.082 149.039 159.396C149.791 159.983 150.506 160 151.17 160.167C151.891 160.348 152.89 160.791 153.969 161.987L163.168 172.949C161.318 170.636 156.33 164.153 154.552 161.616C154.039 160.883 153.535 160.112 153.68 159.221C153.82 158.364 154.546 157.499 154.97 156.103C155.019 155.94 155.151 155.484 154.948 155.298C154.779 155.143 154.535 155.313 154.375 155.171C154.162 154.981 154.428 154.52 154.48 153.793C154.516 153.28 154.428 152.895 154.351 152.563C154.328 152.463 153.975 150.972 153.502 150.974V150.974H153.502Z" fill="#F2F2F2"/>
<path d="M160.596 152.567L160.381 150.654L160.479 150.509C160.932 149.839 161.163 149.184 161.166 148.562C161.166 148.463 161.162 148.365 161.157 148.264C161.138 147.865 161.115 147.369 161.374 146.791C161.519 146.468 161.926 145.722 162.538 145.814C162.703 145.837 162.828 145.913 162.923 146.002C162.936 145.98 162.951 145.957 162.966 145.933C163.157 145.643 163.308 145.518 163.453 145.398C163.565 145.305 163.68 145.21 163.861 144.985C163.941 144.886 164.002 144.799 164.055 144.726C164.213 144.506 164.42 144.242 164.785 144.247C165.174 144.265 165.378 144.588 165.514 144.801C165.755 145.182 165.865 145.456 165.937 145.638C165.963 145.704 165.993 145.779 166.009 145.802C166.134 145.987 167.155 145.814 167.54 145.752C168.403 145.607 169.151 145.483 169.459 146.028C169.68 146.417 169.516 146.933 168.957 147.601C168.783 147.808 168.598 147.966 168.433 148.09C168.57 148.171 168.692 148.296 168.741 148.492C168.857 148.956 168.459 149.42 167.557 149.875C167.333 149.988 167.032 150.14 166.609 150.213C166.41 150.247 166.231 150.255 166.078 150.26C166.075 150.349 166.054 150.445 166 150.543C165.841 150.834 165.512 150.973 165.015 150.94C164.468 150.911 164.018 150.807 163.621 150.715C163.274 150.636 162.976 150.568 162.741 150.584C162.306 150.619 161.971 150.967 161.578 151.419L160.596 152.567H160.596H160.596Z" fill="#F2F2F2"/>
<path d="M161.589 141.178L159.794 141.87L159.629 141.812C158.865 141.544 158.174 141.487 157.572 141.642C157.476 141.666 157.382 141.696 157.285 141.726C156.904 141.845 156.43 141.993 155.806 141.89C155.457 141.831 154.632 141.627 154.566 141.011C154.547 140.845 154.588 140.706 154.65 140.592C154.625 140.584 154.6 140.576 154.573 140.567C154.243 140.456 154.084 140.342 153.931 140.231C153.814 140.147 153.692 140.059 153.429 139.941C153.313 139.89 153.213 139.852 153.129 139.82C152.876 139.722 152.569 139.589 152.481 139.235C152.4 138.853 152.66 138.574 152.832 138.389C153.138 138.059 153.376 137.883 153.534 137.767C153.591 137.725 153.656 137.677 153.674 137.656C153.821 137.488 153.395 136.544 153.237 136.188C152.878 135.389 152.568 134.697 153.017 134.261C153.338 133.948 153.878 133.976 154.666 134.347C154.911 134.463 155.11 134.602 155.272 134.73C155.316 134.577 155.406 134.428 155.582 134.33C156.001 134.1 156.552 134.368 157.22 135.125C157.386 135.313 157.609 135.566 157.787 135.956C157.871 136.14 157.924 136.311 157.968 136.459C158.054 136.439 158.152 136.435 158.262 136.462C158.583 136.542 158.801 136.825 158.894 137.314C159.005 137.851 159.019 138.313 159.031 138.72C159.042 139.076 159.053 139.382 159.127 139.605C159.272 140.017 159.693 140.253 160.23 140.519L161.589 141.178L161.589 141.178Z" fill="#F2F2F2"/>
<path d="M160.596 135.542L160.381 133.63L160.479 133.485C160.932 132.814 161.163 132.159 161.166 131.538C161.166 131.439 161.162 131.34 161.157 131.239C161.138 130.84 161.115 130.344 161.374 129.766C161.519 129.444 161.926 128.697 162.538 128.79C162.703 128.813 162.828 128.888 162.923 128.977C162.936 128.955 162.951 128.933 162.966 128.909C163.157 128.618 163.308 128.493 163.453 128.373C163.565 128.281 163.68 128.186 163.861 127.96C163.941 127.861 164.002 127.775 164.055 127.702C164.213 127.481 164.42 127.218 164.785 127.222C165.174 127.241 165.378 127.563 165.514 127.776C165.755 128.157 165.865 128.431 165.937 128.613C165.963 128.68 165.993 128.755 166.009 128.778C166.134 128.962 167.155 128.79 167.54 128.727C168.403 128.583 169.151 128.458 169.459 129.003C169.68 129.393 169.516 129.908 168.957 130.576C168.783 130.784 168.598 130.942 168.433 131.066C168.57 131.147 168.692 131.272 168.741 131.467C168.857 131.931 168.459 132.396 167.557 132.85C167.333 132.964 167.032 133.115 166.609 133.188C166.41 133.222 166.231 133.231 166.078 133.235C166.075 133.324 166.054 133.42 166 133.519C165.841 133.81 165.512 133.948 165.015 133.915C164.468 133.886 164.018 133.782 163.621 133.691C163.274 133.611 162.976 133.544 162.741 133.559C162.306 133.594 161.971 133.943 161.578 134.394L160.596 135.542H160.596H160.596Z" fill="#F2F2F2"/>
<path d="M162.552 172.673L162.151 172.422L162.055 171.959L162.151 172.422L161.684 172.475C161.677 172.432 161.651 172.332 161.613 172.176C161.404 171.321 160.766 168.718 160.234 164.619C159.863 161.757 159.653 158.816 159.61 155.874C159.566 152.927 159.706 150.697 159.818 148.904C159.902 147.552 160.005 146.264 160.105 145.01C160.373 141.659 160.626 138.494 160.438 134.989C160.396 134.207 160.309 132.578 159.358 130.846C158.806 129.841 158.046 128.949 157.099 128.195L157.688 127.454C158.733 128.287 159.574 129.276 160.187 130.391C161.241 132.312 161.337 134.087 161.382 134.939C161.573 138.506 161.318 141.701 161.048 145.085C160.948 146.334 160.845 147.616 160.761 148.963C160.65 150.739 160.512 152.95 160.555 155.859C160.598 158.766 160.806 161.672 161.172 164.497C161.697 168.544 162.326 171.109 162.532 171.951C162.642 172.401 162.665 172.495 162.552 172.673V172.673H162.552Z" fill="#F2F2F2"/>
<path d="M155.364 129.698C155.326 129.698 155.286 129.697 155.247 129.694C154.441 129.65 153.696 129.168 153.03 128.261C152.718 127.835 152.558 127.348 152.24 126.377C152.19 126.227 151.95 125.468 151.804 124.424C151.709 123.741 151.721 123.456 151.856 123.203C152.006 122.923 152.249 122.727 152.522 122.595C152.51 122.504 152.52 122.411 152.559 122.316C152.72 121.921 153.149 121.973 153.38 121.998C153.498 122.013 153.644 122.032 153.802 122.024C154.05 122.012 154.184 121.938 154.386 121.827C154.58 121.721 154.82 121.589 155.177 121.516C155.881 121.369 156.47 121.569 156.665 121.634C157.687 121.975 158.191 122.77 158.775 123.691C158.891 123.876 159.291 124.548 159.554 125.47C159.745 126.135 159.718 126.431 159.661 126.65C159.544 127.102 159.27 127.361 158.572 127.932C157.843 128.529 157.478 128.828 157.164 129.01C156.433 129.432 155.974 129.698 155.364 129.698V129.698Z" fill="#F2F2F2"/>
<path d="M55.0957 170.436L59.5705 170.436L61.6992 153.171L55.0948 153.172L55.0957 170.436Z" fill="#FFB6B6"/>
<path d="M70.427 170.335C70.5664 170.569 70.6399 171.327 70.6399 171.6C70.6399 172.439 69.9599 173.119 69.1211 173.119H55.2631C54.6909 173.119 54.227 172.655 54.227 172.083V171.506C54.227 171.506 53.5414 169.771 54.9528 167.633C54.9528 167.633 56.707 169.307 59.3283 166.685L60.1012 165.285L65.6965 169.378L68.7979 169.76C69.4764 169.843 70.078 169.747 70.427 170.335H70.427Z" fill="#2F2E41"/>
<path d="M38.1157 170.436L42.5906 170.436L44.7193 153.171L38.1148 153.172L38.1157 170.436Z" fill="#FFB6B6"/>
<path d="M53.4471 170.335C53.5864 170.569 53.6599 171.327 53.6599 171.6C53.6599 172.439 52.9799 173.119 52.1411 173.119H38.2831C37.7109 173.119 37.247 172.655 37.247 172.083V171.506C37.247 171.506 36.5614 169.771 37.9729 167.633C37.9729 167.633 39.7271 169.307 42.3483 166.685L43.1213 165.285L48.7165 169.378L51.8179 169.76C52.4964 169.843 53.098 169.747 53.447 170.335H53.4471H53.4471Z" fill="#2F2E41"/>
<path d="M34.8202 77.696L29.1602 90.5287L36.3295 160.731L45.1969 161.297L48.7815 99.2095L52.1775 161.485L62.7428 160.353L65.249 81.2965L34.8202 77.696Z" fill="#2F2E41"/>
<path d="M57.12 26.5541L45.7629 24.4783L43.4692 26.7726L31.8016 31.6494L33.6882 68.2601C33.6882 68.2601 29.9149 70.7743 31.8016 74.2351C33.6882 77.6958 33.3109 81.8476 33.3109 81.8476H65.249L63.8748 61.0889L67.6482 34.6689L58.8314 30.4936L57.12 26.5541H57.12L57.12 26.5541Z" fill="#CCCCCC"/>
<path d="M48.8883 69.2071C52.1148 69.9775 55.1276 68.9368 55.6175 66.8828C56.1073 64.8288 53.8889 62.5397 50.6611 61.7694C49.3759 61.4441 48.0315 61.4312 46.7404 61.7321L33.0282 58.6404L31.7148 65.1077L45.3721 67.469C46.3886 68.3209 47.5943 68.9169 48.8883 69.2071L48.8883 69.2071H48.8883Z" fill="#FFB6B6"/>
<path d="M34.0655 33.5368L31.8015 31.6497C31.8015 31.6497 27.2735 33.9142 26.5189 35.8014C25.7642 37.6885 21.2362 55.8052 21.2362 55.8052C21.2362 55.8052 20.3479 65.7339 22.6787 66.9971C25.0095 68.2603 39.7255 67.5055 39.7255 67.5055L40.8575 59.9569L34.8202 57.6923L34.0655 33.5368Z" fill="#CCCCCC"/>
<path d="M52.1544 23.4072C57.6629 23.4072 62.1285 18.9405 62.1285 13.4305C62.1285 7.92057 57.6629 3.45386 52.1544 3.45386C46.6458 3.45386 42.1803 7.92057 42.1803 13.4305C42.1803 18.9405 46.6458 23.4072 52.1544 23.4072Z" fill="#FFB6B6"/>
<path d="M45.0008 22.2871C43.8059 22.3939 41.8553 19.3364 41.9423 16.3753C41.9982 14.4704 40.3448 14.0959 40.222 11.6393C40.1504 10.2078 42.3486 9.76151 42.4996 8.61341C42.7732 6.53315 44.115 5.13334 44.2825 4.96317C45.7285 3.49424 46.749 3.97177 48.4495 2.26932C49.4732 1.24436 49.2109 0.963557 49.9004 0.508932C51.8903 -0.803142 55.4658 0.618896 57.604 2.53444C58.3439 3.19729 61.1019 2.47283 62.3066 4.34466C63.726 6.55002 63.3965 11.0476 62.7878 11.6411C62.418 12.0017 61.5735 11.1207 59.2846 10.5553C57.1655 10.0318 59.1646 12.6207 56.7147 12.1862C53.8178 11.6725 53.2506 10.7909 52.1656 11.3197C51.0187 11.8786 50.1226 13.6094 50.3828 14.9699C50.5119 15.645 50.8861 16.0215 50.6751 16.3648C50.2898 16.9916 49.8477 16.3769 49.3536 17.0059C48.7788 17.7376 50.2071 19.6145 49.9381 19.7958C49.884 19.8323 49.7199 19.8275 48.1782 18.3445C47.5626 17.7523 47.3821 17.3887 47.2617 17.4445C47.0667 17.5348 45.7888 18.7256 46.2768 19.666C47.0361 21.1294 46.0643 21.175 46.2768 22.1602C46.496 23.1765 45.7602 22.2192 45.0008 22.2871H45.0008L45.0008 22.2871Z" fill="#2F2E41"/>
<path d="M42.9329 52.5969L41.4235 53.7292L49.3475 64.6747L50.8568 64.2972L42.9329 52.5969Z" fill="#3F3D56"/>
<path d="M63.3088 62.6165V81.7199C63.3088 83.4093 61.9348 84.7836 60.2459 84.7836H41.1474C39.4584 84.7836 38.0844 83.4093 38.0844 81.7199V62.6165C38.0844 60.9271 39.4584 59.5527 41.1474 59.5527H60.2459C61.9348 59.5527 63.3088 60.9271 63.3088 62.6165Z" fill="white"/>
<path d="M53.239 67.3548H47.0733C46.9179 67.3548 46.7914 67.2283 46.7914 67.0729C46.7914 66.9174 46.9179 66.791 47.0733 66.791H53.239C53.3944 66.791 53.5208 66.9174 53.5208 67.0729C53.5208 67.2283 53.3944 67.3548 53.239 67.3548Z" fill="#3F3D56"/>
<path d="M53.239 73.3675H47.0733C46.9179 73.3675 46.7914 73.241 46.7914 73.0856C46.7914 72.9301 46.9179 72.8037 47.0733 72.8037H53.239C53.3944 72.8037 53.5208 72.9301 53.5208 73.0856C53.5208 73.241 53.3944 73.3675 53.239 73.3675Z" fill="#3F3D56"/>
<path d="M50.176 81.6578H44.0103C43.8549 81.6578 43.7284 81.5313 43.7284 81.3759C43.7284 81.2204 43.8549 81.094 44.0103 81.094H50.176C50.3315 81.094 50.4579 81.2204 50.4579 81.3759C50.4579 81.5313 50.3315 81.6578 50.176 81.6578Z" fill="#3F3D56"/>
<path d="M56.5475 70.3631H43.7647C43.6093 70.3631 43.4828 70.2366 43.4828 70.0812C43.4828 69.9257 43.6093 69.7993 43.7647 69.7993H56.5475C56.703 69.7993 56.8294 69.9257 56.8294 70.0812C56.8294 70.2366 56.703 70.3631 56.5475 70.3631Z" fill="#3F3D56"/>
<path d="M55.6035 70.7601C52.6627 72.2954 51.071 75.0576 52.0481 76.9294C53.0252 78.8013 56.2008 79.0737 59.1424 77.5374C60.3259 76.9399 61.349 76.0676 62.1264 74.9934L74.5043 68.3309L71.2548 62.5874L59.3973 69.7652C58.0714 69.789 56.7705 70.1302 55.6035 70.7601Z" fill="#FFB6B6"/>
<path d="M65.3841 35.0463C65.3841 35.0463 68.7801 32.7817 71.0441 38.8206C72.8302 43.5848 76.1428 57.6278 77.4617 63.3441C77.8119 64.8615 77.3052 66.4466 76.1415 67.4813L74.6288 68.8263L67.2708 74.299L62.2541 66.9969L68.3471 63.3223L61.3984 48.2446L65.3841 35.0463L65.3841 35.0463V35.0463Z" fill="#CCCCCC"/>
<path d="M220 172.998C220 173.173 219.858 173.315 219.683 173.315H0V172.681H219.683C219.858 172.681 220 172.823 220 172.998Z" fill="#E6E6E6"/>
<path d="M100.965 171.278C101.044 170.481 100.932 169.677 100.638 168.933L101.88 160.662L97.9284 160.186L97.0933 168.627C96.6758 169.31 96.4277 170.082 96.3699 170.88C96.1976 172.875 97.0866 174.581 98.3555 174.69C99.6245 174.8 100.793 173.272 100.965 171.277L100.965 171.278Z" fill="#A0616A"/>
<path d="M112.402 122.412L109.141 139.553L105.096 148.544L102.687 165.882L96.4962 167.756L98.4374 145.771C98.4374 145.771 104.69 125.344 106.366 123.264C108.042 121.184 112.402 122.412 112.402 122.412H112.402V122.412Z" fill="#FFF2EB"/>
<path d="M115.544 106.047L111.616 118.862L125.127 123.005L129.055 110.19L115.544 106.047Z" fill="#2F2E41"/>
<path d="M122.46 114.994C126.266 114.994 129.351 111.908 129.351 108.102C129.351 104.296 126.266 101.21 122.46 101.21C118.655 101.21 115.57 104.296 115.57 108.102C115.57 111.908 118.655 114.994 122.46 114.994Z" fill="#A0616A"/>
<path d="M128.845 98.3999C126.724 97.3722 122.711 97.8541 121.277 98.0124C119.995 98.1538 119.107 98.8973 118.233 99.6282C116.25 101.287 115.38 103.309 115.103 104.021C113.791 107.389 115.083 108.804 113.712 110.222C112.243 111.742 110.184 110.713 109.289 112.18C108.477 113.513 109.984 114.677 109.402 116.803C108.73 119.255 106.151 119.794 106.414 120.73C106.706 121.768 110.192 122.205 112.971 120.956C113.346 120.787 116.64 119.258 116.8 116.777C116.902 115.186 115.598 115.022 115.237 112.729C114.987 111.135 115.392 109.782 116.038 107.622C116.488 106.117 116.714 105.364 117.199 104.664C117.434 104.326 119.64 101.254 122.911 101.827C125.794 102.333 127.732 105.361 127.359 107.27C127.138 108.397 126.089 109.246 126.502 110.066C126.806 110.67 127.588 110.628 127.685 111.193C127.777 111.724 127.176 112.268 126.72 112.681C126.143 113.204 125.625 113.452 125.431 113.561C124.043 114.334 123.529 116.642 123.537 118.078C123.548 120.222 124.736 122.858 127.143 123.772C129.846 124.799 133.143 123.294 133.268 122.081C133.34 121.377 132.303 121.157 132.137 119.95C131.95 118.59 133.139 117.927 132.761 117.083C132.418 116.319 132.918 117.409 131.972 116.331C131.856 116.199 131.246 115.481 131.236 114.576C131.222 113.398 132.233 112.62 132.791 111.994C134.882 109.652 135.211 105.231 133.275 103.072C132.175 101.846 132.856 100.343 128.845 98.3999H128.845H128.845Z" fill="#2F2E41"/>
<path d="M129.855 105.082C130.478 103.669 128.831 101.872 128.616 101.643C127.008 99.9316 124.7 99.8695 123.562 99.8388C122.567 99.8121 120.432 99.7546 118.817 101.188C117.943 101.963 117.128 103.257 117.494 103.841C117.718 104.198 118.366 104.216 119.662 104.251C120.827 104.282 121.249 104.129 121.901 104.428C122.383 104.648 122.502 104.892 122.923 105.251C124.063 106.221 125.465 106.369 125.88 106.412C126.859 106.516 129.242 106.473 129.855 105.082H129.855H129.855Z" fill="#2F2E41"/>
<path d="M113.411 120.895L107.568 122.694L108.017 128.089L106.219 161.357L136.333 162.256L136.717 159.16L133.636 148.01L134.985 125.841L126.445 121.345L124.198 116.849L116.107 116.4L113.411 120.895Z" fill="#FFF2EB"/>
<path d="M126.67 155.737L105.995 162.031C105.995 162.031 93.5076 165.605 86.7657 169.202C80.0239 172.798 80.825 176.062 80.825 176.062L89.3647 214.276L97.4549 214.726L96.3578 179.574L105.096 178.382L106.444 191.254L113.635 193.052L120.827 168.325C121.343 171.425 124.212 173.565 127.329 173.17C129.932 172.84 133.109 172.335 136.108 171.586C142.85 169.901 136.108 157.985 136.108 157.985L126.67 155.737Z" fill="#2F2E41"/>
<path d="M105.32 174.844C105.32 174.844 106.669 164.054 108.916 151.916C111.163 139.778 119.254 142.925 119.254 142.925L133.636 158.21L121.95 165.853L105.32 174.844Z" fill="#2F2E41"/>
<path d="M117.519 163.187C118.109 162.646 118.561 161.973 118.838 161.222L125.278 155.887L122.65 152.896L116.4 158.63C115.634 158.86 114.935 159.27 114.359 159.826C112.901 161.198 112.427 163.062 113.299 163.99C114.172 164.918 116.061 164.558 117.519 163.187H117.519V163.187Z" fill="#A0616A"/>
<path d="M122.867 133.48L128.011 143.503L119.18 154.893L123.625 159.548L134.674 150.229L139.857 145.346C141.737 143.575 140.759 141.241 139.828 138.832C136.108 129.212 137.007 125.616 133.412 124.717C130.487 123.985 122.867 133.48 122.867 133.48L122.867 133.48Z" fill="#FFF2EB"/>
<path d="M99.3042 152.345L100.145 149.99L115.785 152.681L129.07 145.953L129.743 147.803L115.28 156.382L99.3042 152.345Z" fill="#E6E6E6"/>
<path d="M130.416 146.625L115.448 154.195L98.3414 151.722L99.9769 158.905L114.439 161.428L128.112 154.875L130.416 146.625Z" fill="#3F3D56"/>
<path d="M39.4732 65.0325L40.3141 62.6775L55.9538 65.3689L69.2392 58.6404L69.9119 60.4907L55.4493 69.0696L39.4732 65.0325Z" fill="#E6E6E6"/>
<path d="M70.5846 59.313L55.6175 66.8826L38.5104 64.4099L40.1459 71.5925L54.6085 74.1157L68.2812 67.5624L70.5846 59.313Z" fill="#3F3D56"/>
</g>
<defs>
<clipPath id="clip0_363_786">
<rect width="220" height="232" fill="white"/>
</clipPath>
</defs>
</svg>
