<svg width="220" height="192" viewBox="0 0 220 192" fill="none" xmlns="http://www.w3.org/2000/svg">
<g clip-path="url(#clip0_363_737)">
<path d="M70.966 184.092C70.7569 184.102 70.5498 184.047 70.373 183.934C70.1961 183.822 70.0579 183.658 69.9772 183.465C69.8964 183.271 69.877 183.057 69.9215 182.853C69.966 182.648 70.0723 182.461 70.2261 182.319C70.2518 182.216 70.2703 182.143 70.296 182.04C70.2868 182.018 70.2775 181.996 70.2682 181.973C70.0576 181.475 69.7045 181.05 69.2535 180.752C68.8025 180.453 68.2736 180.295 67.7333 180.297C67.1929 180.299 66.6652 180.461 66.2164 180.763C65.7677 181.064 65.4178 181.492 65.2108 181.992C64.3837 183.988 63.3306 185.988 63.0713 188.098C62.9571 189.031 63.0052 189.977 63.2137 190.893C61.2709 186.647 60.2621 182.032 60.2556 177.361C60.2552 176.189 60.3202 175.018 60.4503 173.853C60.5578 172.898 60.7069 171.95 60.8978 171.008C61.939 165.901 64.1747 161.113 67.4212 157.039C68.9925 156.18 70.2632 154.86 71.0621 153.255C71.3515 152.678 71.5561 152.062 71.6694 151.426C71.4922 151.45 71.312 151.464 71.1348 151.476C71.0795 151.479 71.0214 151.482 70.9662 151.485L70.9454 151.485C70.7506 151.494 70.5574 151.446 70.3891 151.348C70.2208 151.249 70.0846 151.104 69.9968 150.929C69.909 150.755 69.8735 150.559 69.8944 150.364C69.9153 150.17 69.9918 149.986 70.1147 149.834C70.1912 149.74 70.2678 149.646 70.3444 149.551C70.4606 149.406 70.5798 149.263 70.696 149.118C70.7094 149.104 70.722 149.089 70.7338 149.074C70.8674 148.908 71.0011 148.745 71.1348 148.579C70.8908 148.2 70.5626 147.882 70.1759 147.65C68.8363 146.864 66.9882 147.409 66.0206 148.623C65.0501 149.837 64.867 151.54 65.2041 153.057C65.5355 154.347 66.0839 155.572 66.8255 156.678C66.7529 156.772 66.6773 156.862 66.6047 156.955C65.2767 158.666 64.1193 160.503 63.149 162.44C63.385 160.27 63.1034 158.075 62.3274 156.035C61.5409 154.134 60.0667 152.533 58.7685 150.89C57.2092 148.916 54.0117 149.777 53.737 152.279C53.7343 152.304 53.7317 152.328 53.7292 152.352C53.922 152.461 54.1108 152.577 54.2955 152.699C54.5275 152.855 54.7072 153.076 54.8112 153.336C54.9152 153.595 54.9385 153.88 54.8782 154.153C54.8178 154.426 54.6766 154.674 54.473 154.865C54.2694 155.057 54.0129 155.182 53.7371 155.224L53.7089 155.229C53.7776 155.925 53.899 156.615 54.0721 157.293C54.5737 159.185 55.46 160.953 56.6756 162.486C57.8911 164.019 59.4097 165.284 61.136 166.202C61.2493 166.26 61.3598 166.318 61.4731 166.373C60.4983 169.141 59.8868 172.024 59.6541 174.95C59.5223 176.677 59.5301 178.411 59.6773 180.136L59.6686 180.074C59.2966 178.156 58.2754 176.426 56.7774 175.175C54.5524 173.343 51.4089 172.669 49.0086 171.197C48.7535 171.033 48.4568 170.945 48.1537 170.944C47.8505 170.944 47.5535 171.03 47.2976 171.193C47.0417 171.356 46.8376 171.588 46.7094 171.864C46.5813 172.139 46.5343 172.445 46.5741 172.746C46.5773 172.768 46.5806 172.789 46.5839 172.81C46.9418 172.956 47.2902 173.125 47.6271 173.314C47.8199 173.423 48.0087 173.539 48.1933 173.661C48.4253 173.816 48.6051 174.038 48.7091 174.298C48.8131 174.557 48.8364 174.842 48.7761 175.115C48.7157 175.388 48.5745 175.636 48.3709 175.827C48.1673 176.019 47.9108 176.144 47.635 176.186L47.6068 176.191C47.5864 176.193 47.569 176.196 47.5487 176.199C48.1601 177.662 49.0182 179.008 50.0854 180.179C51.4038 181.597 52.9972 182.729 54.768 183.508C56.5388 184.286 58.4497 184.694 60.3834 184.706H60.3863C60.9113 186.992 61.6718 189.216 62.6558 191.344H70.7628C70.7919 191.254 70.818 191.161 70.8442 191.071C70.0938 191.118 69.3404 191.073 68.6009 190.937C69.2024 190.197 69.8039 189.452 70.4054 188.712C70.4188 188.699 70.4314 188.684 70.4432 188.669C70.7483 188.29 71.0563 187.915 71.3614 187.536L71.3616 187.536C71.3778 186.376 71.245 185.218 70.9662 184.092L70.966 184.092Z" fill="#F2F2F2"/>
<path d="M98.1353 27.8974C98.1353 33.3699 95.403 38.9385 89.9411 38.9385C84.4793 38.9385 76.9434 34.9751 78.6388 26.4819C79.71 21.1158 82.7839 17.9888 88.2458 17.9888C90.8686 17.9888 93.3841 19.0327 95.2387 20.891C97.0934 22.7492 98.1353 25.2695 98.1353 27.8974Z" fill="#2F2E41"/>
<path d="M75.2238 106.084C75.5214 105.753 75.743 105.361 75.873 104.935C76.0031 104.509 76.0383 104.06 75.9762 103.619C75.9142 103.178 75.7564 102.756 75.514 102.383C75.2716 102.009 74.9504 101.694 74.5731 101.458L76.964 90.9004L71.7087 92.8816L70.2439 102.604C69.8911 103.265 69.7926 104.033 69.9672 104.762C70.1417 105.491 70.5772 106.131 71.191 106.56C71.8049 106.989 72.5544 107.177 73.2977 107.09C74.0409 107.002 74.7262 106.644 75.2238 106.084V106.084Z" fill="#FFB8B8"/>
<path d="M86.3787 68.662L82.7107 69.0361C82.7107 69.0361 83.67 74.4804 82.1698 75.7067C80.6696 76.933 81.2743 76.9272 81.283 77.836C81.2917 78.7449 80.7015 80.2654 79.5008 81.1859C78.3 82.1063 75.8028 98.4993 75.8028 98.4993L70.3603 98.5516C70.5227 97.1416 70.509 95.7169 70.3197 94.3104C69.997 92.1927 68.3659 86.8583 68.9619 85.9436C69.5579 85.029 69.2442 83.347 69.2268 81.5294C69.2094 79.7117 71.8046 81.7201 71.7756 78.6907C71.7466 75.6613 75.0754 56.6518 74.7469 53.9282C74.4184 51.2046 77.7212 48.749 77.7212 48.749L80.7448 48.72L86.3787 68.662Z" fill="#FFF2EB"/>
<path d="M125.319 43.0959C125.41 43.5078 125.41 43.9348 125.319 44.3468C125.228 44.7588 125.048 45.1458 124.792 45.4806C124.535 45.8153 124.209 46.0897 123.835 46.2843C123.461 46.4789 123.05 46.589 122.629 46.6069L119.686 56.4318L116.274 52.3421L119.591 43.6392C119.608 42.929 119.885 42.2495 120.368 41.7297C120.851 41.2099 121.508 40.8858 122.214 40.8188C122.92 40.7519 123.626 40.9467 124.198 41.3663C124.77 41.786 125.169 42.4014 125.319 43.0959V43.0959Z" fill="#FFB8B8"/>
<path d="M94.2524 46.296C94.2524 46.296 101.366 43.6236 105.223 58.2584L110.342 63.571L114.644 55.7839L114.075 53.9366L117.399 46.3859L123.098 49.6631L121.696 54.8471L121.933 57.4097L120.571 59.0036L118.341 67.2414L116.946 69.9327C116.946 69.9327 115.188 73.3788 112.117 73.9464C111.299 74.1 110.461 74.1238 109.636 74.017C108.019 73.8055 106.247 73.0589 104.426 71.411C97.6706 65.2977 93.6752 60.5818 93.6752 60.5818L94.2524 46.296Z" fill="#FFF2EB"/>
<path d="M128.547 49.4088L115.884 37.1638C115.815 37.097 115.774 37.0063 115.77 36.9103C115.765 36.8142 115.798 36.7203 115.861 36.6477C115.924 36.5751 116.012 36.5294 116.108 36.5201C116.203 36.5108 116.299 36.5385 116.374 36.5975L129.801 47.0785L128.547 49.4088Z" fill="#3F3D56"/>
<path d="M133.763 50.7659C133.127 50.9895 132.468 51.137 131.798 51.2056C131.457 51.2392 131.116 51.2512 130.777 51.2553C130.658 51.2594 130.537 51.2599 130.419 51.2614C130.137 51.2656 129.855 51.2697 129.571 51.2729C129.331 51.2776 129.089 51.2813 128.85 51.2832C128.498 51.2887 128.113 51.2814 127.86 51.0339C127.754 50.9091 127.676 50.7622 127.633 50.6037C127.59 50.4452 127.583 50.2791 127.612 50.1174C127.668 49.7793 127.77 49.4505 127.915 49.1403C128.219 48.4078 128.526 47.6762 128.83 46.9436L128.782 46.5336C129.34 46.4527 129.908 46.4702 130.459 46.5852C130.685 46.6429 130.896 46.7456 131.081 46.8873C131.266 47.029 131.42 47.2067 131.535 47.4097C131.583 47.501 131.621 47.5972 131.649 47.6965C131.768 48.1331 131.682 48.6176 131.733 49.0743C131.745 49.1693 131.762 49.2635 131.786 49.3564C131.851 49.631 131.976 49.8879 132.152 50.1085C132.327 50.3292 132.55 50.5083 132.802 50.6331C133.104 50.7661 133.436 50.8121 133.763 50.7659Z" fill="#CCCCCC"/>
<path d="M134.653 50.4109C134.389 50.5983 134.083 50.7198 133.763 50.7652C134.065 50.6621 134.362 50.5438 134.653 50.4109Z" fill="#E6E6E6"/>
<path d="M133.763 50.7659C133.127 50.9894 132.468 51.137 131.798 51.2055C131.457 51.2391 131.116 51.2511 130.777 51.2552C130.658 51.2594 130.537 51.2599 130.419 51.2613C130.137 51.2655 129.855 51.2697 129.571 51.2729C129.585 51.1298 129.606 50.9876 129.635 50.8468C129.901 49.5325 130.672 48.415 131.535 47.4097C131.583 47.501 131.621 47.5971 131.649 47.6965C131.768 48.133 131.682 48.6175 131.733 49.0742C131.745 49.1692 131.762 49.2634 131.786 49.3563C131.851 49.631 131.976 49.8878 132.152 50.1085C132.327 50.3292 132.549 50.5083 132.802 50.633C133.104 50.766 133.436 50.8121 133.763 50.7659Z" fill="#FFF2EB"/>
<path d="M84.711 70.8014L84.2078 73.2041L83.78 82.0664L100.97 79.7345L102.29 69.4725L100.465 66.4688L84.711 70.8014Z" fill="#FFB6B6"/>
<path d="M97.4253 34.5538C99.5805 30.6037 98.1316 25.651 94.1891 23.4917C90.2466 21.3323 85.3035 22.7841 83.1483 26.7342C80.9932 30.6843 82.4421 35.637 86.3846 37.7963C90.327 39.9556 95.2702 38.5039 97.4253 34.5538Z" fill="#FFB7B7"/>
<path d="M78.0302 59.7573L75.7932 53.9338C75.7921 51.4959 76.6155 49.1295 78.1292 47.2206C79.6428 45.3118 81.7574 43.9733 84.128 43.4233L84.1587 43.4161L85.7673 41.2444L92.3032 41.8995L93.5011 44.3525L98.2371 47.1779L103.623 53.4971C105.32 54.7176 106.327 56.2824 106.619 58.1487C107.238 62.1106 104.469 66.0748 104.14 66.5293L103.291 71.3175L83.6715 74.1346L83.5216 74.1536L78.0302 59.7573Z" fill="#FFF2EB"/>
<path d="M81.7727 32.7809C81.8464 32.7693 81.9201 32.7537 81.9939 32.742C83.2629 32.5165 84.5319 32.2949 85.797 32.0655L85.9135 29.1921L87.4464 31.7661C90.9429 32.9287 94.2144 32.2716 97.2919 30.8212C98.307 30.3384 99.2919 29.7944 100.241 29.1921C100.903 25.1446 99.2332 21.9549 94.944 21.5477C94.8108 21.5351 94.7151 21.4233 94.5986 21.3649C94.5981 21.3649 94.5976 21.3648 94.5971 21.3646C94.5967 21.3645 94.5962 21.3642 94.5959 21.3638C94.5955 21.3634 94.5952 21.363 94.595 21.3625C94.5948 21.3621 94.5948 21.3615 94.5948 21.361C94.3968 21.2677 94.195 21.1783 93.9932 21.0967C92.4134 20.478 90.6907 20.3214 89.0255 20.6449C87.3603 20.9684 85.8209 21.7587 84.5862 22.9241C82.1026 25.2999 80.9849 29.2232 81.7727 32.7809Z" fill="#2F2E41"/>
<path d="M96.694 171.151L101.361 173.3L111.854 156.284L104.966 153.113L96.694 171.151Z" fill="#FFB6B6"/>
<path d="M96.5944 168.311L104.175 171.267L102.722 174.434L107.511 182.517C107.747 182.917 107.85 183.381 107.804 183.843C107.759 184.305 107.567 184.74 107.257 185.085C106.947 185.431 106.535 185.667 106.081 185.761C105.627 185.855 105.155 185.801 104.734 185.607L95.9506 181.563L95.8735 177.733L93.8454 180.593L90.5336 179.069L96.5944 168.311Z" fill="#2F2E41"/>
<path d="M76.291 181.708H81.4277L83.8712 161.857L76.2902 161.857L76.291 181.708Z" fill="#FFB6B6"/>
<path d="M73.4978 140.975L73.4976 140.922L75.427 137.59L73.4569 133.254L73.317 106.9C72.5411 87.8546 83.5687 78.6997 83.6555 78.6097L83.8946 78.3606L101.58 77.927C101.58 77.927 110.875 105.267 118.26 129.902C118.696 131.358 119.93 132.794 119.547 134.236C116.502 145.669 112.888 158.609 110.568 158.975L103.221 155.011L104.587 135.196L103.747 133.04C102.244 132.762 98.3342 117.561 98.3342 117.561C97.6789 116.782 97.7126 114.662 97.7126 114.662L92.592 109.276L87.8724 134.105L89.0394 141.51L88.0736 144.056L83.9376 165.078L83.8936 165.417L76.0958 164.637L73.4978 140.975Z" fill="#2F2E41"/>
<path d="M74.5517 179.169L82.6715 178.683V182.169L90.3912 187.511C90.7725 187.775 91.0597 188.154 91.2108 188.592C91.3619 189.031 91.369 189.507 91.2311 189.95C91.0933 190.394 90.8176 190.781 90.4443 191.056C90.0711 191.331 89.6198 191.48 89.1565 191.48H79.4895L77.8233 188.032L77.1727 191.48H73.5279L74.5517 179.169Z" fill="#2F2E41"/>
<path d="M84.8897 21.1587V21.1656C84.8907 21.5922 84.8364 22.0172 84.7281 22.4298C84.7109 22.5021 84.6903 22.5779 84.6662 22.6503V22.6537C84.4356 23.3906 84.0377 24.0639 83.5039 24.6209C82.97 25.1779 82.3146 25.6035 81.5891 25.8643C81.4825 25.9056 81.3725 25.94 81.2625 25.971C81.0307 26.0384 80.7938 26.0868 80.5542 26.1157C80.339 26.1463 80.1218 26.1612 79.9044 26.1605C79.7345 26.1612 79.5647 26.1532 79.3956 26.1364C78.9999 26.0962 78.6107 26.0072 78.2369 25.8711C78.1784 25.8541 78.121 25.8334 78.065 25.8091C78.0369 25.7991 78.0094 25.7876 77.9825 25.7747C77.3588 25.5131 76.7946 25.1272 76.3243 24.6405C75.8539 24.1538 75.4872 23.5764 75.2464 22.9434C75.0055 22.3103 74.8956 21.6349 74.9233 20.958C74.9509 20.281 75.1156 19.6168 75.4073 19.0056L75.4108 19.0022C75.6552 18.4894 75.9867 18.0232 76.3906 17.6243C77.2914 16.7252 77.6884 14.472 79.0567 14.472C79.1221 14.4708 79.1876 14.4731 79.2527 14.4788C80.1707 14.5099 81.8676 16.4944 82.5896 16.9629C83.1258 17.3023 83.5907 17.7435 83.958 18.2616C84.3415 18.7945 84.6151 19.3989 84.7625 20.0391C84.8469 20.4063 84.8895 20.7819 84.8897 21.1587Z" fill="#2F2E41"/>
<path d="M78.7986 19.4192C78.0244 20.3223 76.8122 20.6734 75.7187 21.1433C73.7888 21.9916 72.0946 23.2987 70.7829 24.9514C69.4712 26.604 68.5816 28.5523 68.1914 30.6273C67.889 32.3175 67.9286 34.067 67.4511 35.7147C66.9764 37.3624 65.8009 38.9789 64.114 39.2649C62.9725 39.4602 61.8282 39.0185 60.7545 38.5826C60.1639 38.3448 59.5734 38.106 58.9828 37.8663C59.5988 36.3177 60.2138 34.7691 60.8279 33.2206C59.841 34.682 58.6932 36.0277 57.4061 37.2322C55.2898 36.3772 53.1715 35.5222 51.0514 34.6672C56.2674 34.687 55.3774 29.6138 56.5443 24.5236C57.1857 21.7265 62.6476 19.8325 63.7185 17.1714C64.2971 15.7279 65.2764 14.4808 66.5404 13.5776C67.8044 12.6745 69.3002 12.153 70.8507 12.075C72.4013 11.9969 73.9417 12.3656 75.2896 13.1373C76.6376 13.9091 77.7366 15.0516 78.4567 16.4296C79.5276 16.8571 79.5587 18.5274 78.7986 19.4192Z" fill="#2F2E41"/>
<path d="M100.953 79.1748C102.153 79.4884 103.26 80.0878 104.179 80.9221C105.098 81.7564 105.803 82.8009 106.233 83.9666C106.465 84.6371 106.61 85.4319 106.211 86.0694C106.089 86.298 105.888 86.4745 105.646 86.5664C105.405 86.6582 105.138 86.6592 104.895 86.5692C104.374 86.3542 104.015 85.8205 103.75 85.3476C103.399 84.6792 103.098 83.9859 102.848 83.2734C102.439 82.1982 101.566 80.4033 102.812 79.5627C103.86 78.8557 105.248 79.1304 106.428 79.0819C107.703 79.0295 109.119 78.5404 109.572 77.2167C110.013 75.9293 108.98 74.7185 107.867 74.2289C107.198 73.9509 106.471 73.8416 105.75 73.9104C105.029 73.9792 104.335 74.2241 103.73 74.6237C102.535 75.4539 101.682 76.6909 101.329 78.1046C101.303 78.2118 101.32 78.3247 101.376 78.4195C101.432 78.5144 101.523 78.5838 101.629 78.613C101.735 78.6423 101.848 78.6292 101.944 78.5765C102.041 78.5238 102.113 78.4355 102.146 78.3304C102.496 77.0502 103.253 75.8456 104.434 75.1895C105.54 74.5753 107.057 74.5374 108.089 75.3326C108.6 75.7259 109 76.3804 108.739 77.0303C108.499 77.6267 107.874 77.9814 107.28 78.1254C105.935 78.4513 104.528 78.0296 103.188 78.46C101.909 78.8704 101.173 79.9181 101.357 81.2775C101.497 82.0413 101.722 82.7866 102.03 83.4992C102.292 84.2318 102.598 84.9477 102.946 85.6431C103.479 86.651 104.438 87.7419 105.705 87.4464C107.148 87.1096 107.491 85.4211 107.181 84.1793C106.476 81.3476 103.944 79.0795 101.178 78.3558C101.071 78.3303 100.959 78.3473 100.864 78.4034C100.769 78.4594 100.7 78.5501 100.671 78.6563C100.642 78.7625 100.655 78.8759 100.707 78.9726C100.76 79.0694 100.848 79.1419 100.953 79.1748Z" fill="#2F2E41"/>
<path d="M113.638 156.524C113.039 155.814 112.184 155.381 111.353 154.966L104.384 151.488L104.186 152.727C103.922 151.912 102.629 151.852 102.105 152.529C101.58 153.206 101.748 154.229 102.26 154.916C102.771 155.602 103.547 156.031 104.299 156.439C105.967 157.343 107.634 158.247 109.302 159.151C110.079 159.572 110.881 160.002 111.759 160.098C112.637 160.194 113.62 159.877 114.058 159.108C114.518 158.301 114.237 157.234 113.638 156.524Z" fill="#2F2E41"/>
<path d="M86.5274 163C85.6749 162.633 84.7169 162.628 83.7889 162.629C81.1936 162.631 78.5983 162.633 76.0031 162.635L76.3779 163.833C75.7789 163.221 74.5949 163.746 74.4274 164.587C74.26 165.427 74.8661 166.267 75.6297 166.653C76.3933 167.038 77.279 167.074 78.1337 167.103C80.0286 167.166 81.9236 167.228 83.8185 167.291C84.7014 167.321 85.6103 167.346 86.4389 167.039C87.2674 166.732 88.0062 166.009 88.055 165.125C88.1063 164.197 87.38 163.368 86.5274 163Z" fill="#2F2E41"/>
<path d="M130.287 108.229C118.868 108.229 106.459 105.949 94.134 101.565C78.892 96.144 64.9167 87.9611 53.7191 77.9009L54.0506 77.2346C65.1944 87.2461 79.1077 95.3916 94.2866 100.79C108.004 105.669 121.823 107.93 134.247 107.334L134.269 108.135C132.956 108.198 131.629 108.23 130.287 108.229Z" fill="#F0F0F0"/>
<path d="M27.9884 66.4766C18.839 54.3755 22.4674 40.5642 17.1071 30.9291C-3.43672 -5.99896 21.8602 -2.59672 50.4609 4.58458L50.5291 5.38124C32.3258 8.19586 20.3543 17.5825 17.684 31.1342C15.6088 41.6661 19.4169 54.0148 28.4071 65.9054L27.9884 66.4766Z" fill="#F0F0F0"/>
<path d="M116.264 109.432C104.845 109.432 91.7219 96.7355 80.1111 102.768C44.9566 121.032 49.7958 90.4697 39.6962 79.1033L40.0278 78.437C51.1715 88.4485 65.0849 96.594 80.2637 101.993C93.9807 106.872 107.8 109.133 120.224 108.536L120.246 109.337C118.934 109.4 117.606 109.432 116.264 109.432Z" fill="#F0F0F0"/>
<path d="M142.461 104.39L142.269 103.631C152.482 98.9915 151.605 85.1737 160.742 82.0183C230.346 57.9817 161.639 55.271 146.185 42.5567C132.365 31.1869 117.303 17.968 98.1621 11.1599L98.3148 10.3848C117.54 17.2228 134.677 28.431 146.57 41.9447C158.523 55.5261 163.761 69.8307 161.319 82.2234C159.393 91.9959 152.872 99.6609 142.461 104.39Z" fill="#F0F0F0"/>
<path d="M48.6843 109.767C36.3928 89.6315 20.0623 71.6458 0 60.924L0.497047 60.4805C9.39204 78.4819 26.5911 95.725 48.9261 109.034L48.6843 109.767Z" fill="#F0F0F0"/>
<path d="M127.573 132.929C125.259 132.929 122.905 132.86 120.511 132.721L120.537 131.92C138.19 141.983 153.938 139.59 166.114 123.614L166.337 124.358C155.907 130.004 142.613 132.929 127.573 132.929Z" fill="#F0F0F0"/>
<path d="M131.191 125.264C132.509 125.264 133.578 123.829 133.578 122.057C133.578 120.286 132.509 118.851 131.191 118.851C129.873 118.851 128.804 120.286 128.804 122.057C128.804 123.829 129.873 125.264 131.191 125.264Z" fill="#FD6584"/>
<path d="M50.5558 66.5973C50.7537 65.2915 49.4973 64.0174 47.7496 63.7516C46.002 63.4857 44.4248 64.3288 44.227 65.6346C44.0291 66.9404 45.2855 68.2145 47.0331 68.4804C48.7808 68.7462 50.3579 67.9031 50.5558 66.5973Z" fill="#E6E6E6"/>
<path d="M39.5676 31.8017C40.8859 31.8017 41.9545 30.3659 41.9545 28.5948C41.9545 26.8237 40.8859 25.3879 39.5676 25.3879C38.2494 25.3879 37.1807 26.8237 37.1807 28.5948C37.1807 30.3659 38.2494 31.8017 39.5676 31.8017Z" fill="#E6E6E6"/>
<path d="M44.9915 50.1682C41.8787 45.8214 36.0034 43.5751 31.8688 45.151C27.7342 46.7269 26.9059 51.5282 30.0188 55.875C33.1316 60.2218 42.2947 67.0592 46.4294 65.4833C50.564 63.9074 48.1044 54.515 44.9915 50.1682ZM45.0107 63.5378C44.5017 64.2854 43.2531 64.3201 42.2217 63.6153C41.1904 62.9105 40.7669 61.733 41.2758 60.9854C41.7848 60.2378 43.0334 60.2031 44.0648 60.9079C45.0961 61.6128 45.5196 62.7902 45.0107 63.5378Z" fill="#3F3D56"/>
<path d="M41.4775 54.4202C41.0898 54.7341 40.7022 55.0481 40.3145 55.362C39.8387 55.8016 39.2754 56.1353 38.6616 56.341C37.8189 56.5361 36.9379 56.4835 36.1243 56.1896C34.9382 55.8057 33.8986 55.0655 33.1466 54.0695L33.9846 54.2567C33.54 53.7411 33.1785 53.1591 32.9132 52.5317C32.7167 51.9494 32.8263 51.3585 33.3568 51.199C33.964 51.0164 34.9415 51.4268 35.4513 51.1318C36.3329 50.6216 34.8836 48.7218 35.687 48.1358C36.155 47.7943 37.0916 48.1321 37.8724 48.4672C38.8435 48.8378 39.7638 49.3302 40.6114 49.9326C41.9982 51.0056 42.766 52.697 42.1998 53.676C42.0061 53.9659 41.7613 54.2181 41.4775 54.4202Z" fill="#FFF2EB"/>
<path d="M41.1918 57.6796C40.5139 57.7726 39.7295 57.2504 39.0753 56.7687L38.9088 56.5503C38.7726 56.1322 38.7152 55.6924 38.7398 55.2533C38.7553 55.0498 38.8393 54.8577 38.978 54.7083C39.1168 54.5589 39.302 54.4612 39.5035 54.4312C39.9011 54.3787 40.4318 54.5506 40.6945 54.3201C41.2023 53.8744 40.0246 52.6458 40.5631 52.2287C40.8653 51.9946 41.5075 52.2947 41.7844 52.6971C42.0105 53.0722 42.1149 53.5084 42.0831 53.9454C42.0921 54.5873 42.1011 55.2291 42.1101 55.8709C42.1387 56.2499 42.1004 56.6309 41.997 56.9966C41.9401 57.1746 41.8345 57.333 41.6922 57.4538C41.5498 57.5745 41.3764 57.6528 41.1918 57.6796Z" fill="#2F2E41"/>
<path d="M41.3618 59.8182C40.4221 59.5402 38.9891 58.5699 37.7685 57.7131L37.4051 57.3963C37.0246 56.9639 36.7021 56.4835 36.4458 55.9674C36.3049 55.5809 36.4862 55.3551 37.1102 55.5418C37.6625 55.7071 38.5324 56.1767 38.7896 56.0841C39.287 55.9051 36.8911 53.9904 37.4489 53.8578C37.762 53.7834 38.8653 54.4465 39.4909 55.0136C39.9517 55.423 40.3322 55.9149 40.6131 56.464C40.9788 57.1299 41.3445 57.7959 41.7101 58.4618C41.931 58.7944 42.0849 59.1671 42.1631 59.5588C42.1707 59.8422 41.932 59.987 41.3618 59.8182Z" fill="#FF6584"/>
<path d="M174.377 7.85254C174.745 3.17648 177.834 8.69415 182.501 9.06355C183.611 9.15095 184.693 9.45661 185.685 9.96309C186.677 10.4696 187.56 11.1669 188.283 12.0153C189.006 12.8637 189.555 13.8465 189.899 14.9076C190.243 15.9687 190.375 17.0873 190.287 18.1994C190.2 19.3116 189.894 20.3956 189.388 21.3894C188.882 22.3832 188.186 23.2675 187.339 23.9916C186.492 24.7157 185.511 25.2655 184.451 25.6096C183.392 25.9537 182.276 26.0854 181.166 25.9971C176.499 25.6277 174.008 12.5286 174.377 7.85254Z" fill="#FFF2EB"/>
<path d="M203.432 52.7504C203.52 51.6386 203.825 50.5549 204.331 49.5613C204.837 48.5676 205.533 47.6835 206.379 46.9594C207.226 46.2353 208.207 45.6854 209.266 45.3411C210.324 44.9967 211.44 44.8647 212.55 44.9525C217.217 45.3219 220.339 36.036 219.97 40.7121C219.602 45.3881 215.882 62.2555 211.215 61.8861C210.105 61.7982 209.024 61.4922 208.032 60.9856C207.04 60.479 206.158 59.7816 205.435 58.9332C204.713 58.0849 204.164 57.1023 203.82 56.0414C203.476 54.9806 203.345 53.8623 203.432 52.7504Z" fill="#FFF2EB"/>
<path d="M214.071 62.9852C212.795 63.6014 211.321 63.2381 210.219 62.4243C208.966 61.4986 208.349 60.0262 208.144 58.5158C207.948 56.8945 208.083 55.2502 208.542 53.683C208.977 52.1712 209.91 50.6022 211.578 50.2904C212.689 50.0825 213.876 50.5576 214.184 51.714C214.301 52.1778 214.297 52.664 214.171 53.1258C214.046 53.5875 213.805 54.0092 213.47 54.3501C212.472 55.3103 210.871 55.2372 209.713 54.627C208.35 53.9092 207.598 52.4731 207.35 50.9966C207.055 49.2411 207.467 47.4771 208.054 45.8256C208.691 44.0307 209.484 42.2895 210.213 40.5308C211.635 37.101 212.97 33.5975 213.536 29.9092C214.401 24.2751 213.055 17.5884 208.125 14.1394C205.463 12.2775 202.126 11.7501 198.95 12.1508C195.602 12.5734 192.525 14.0456 189.8 15.9949C188.383 17.027 187.037 18.154 185.771 19.3682C185.387 19.7634 184.895 20.0355 184.357 20.1498C183.819 20.264 183.259 20.2154 182.748 20.01C180.128 18.9415 180.963 14.6694 183.664 14.3511C184.891 14.2064 186.155 14.8925 186.987 15.7497C187.896 16.7226 188.488 17.9483 188.687 19.2653C189.149 22.0374 188.123 24.9676 186.342 27.0866C184.329 29.4805 181.27 30.8281 178.292 31.538C174.901 32.3462 171.414 32.3874 167.948 32.4642C164.402 32.5428 160.813 32.6779 157.39 33.6973C154.635 34.5263 152.035 35.8062 149.697 37.4851C144.985 40.8381 141.46 45.6047 139.629 51.0965C139.199 52.425 138.88 53.7872 138.677 55.1688C138.597 55.7098 139.442 55.7743 139.522 55.2357C140.413 49.2129 143.668 43.6743 148.243 39.7094C150.525 37.7224 153.138 36.152 155.962 35.0697C159.363 33.7767 162.976 33.4488 166.586 33.3433C170.273 33.2355 173.994 33.2942 177.626 32.5546C180.837 31.9008 184.088 30.6183 186.427 28.2431C188.49 26.1489 189.766 23.1528 189.629 20.1918C189.502 17.4366 187.987 14.4906 185.182 13.6719C183.865 13.2877 182.452 13.5321 181.474 14.5391C180.931 15.1132 180.556 15.827 180.393 16.6012C180.23 17.3754 180.284 18.1799 180.549 18.9252C180.899 19.7351 181.536 20.3857 182.338 20.7503C183.14 21.115 184.049 21.1676 184.888 20.8981C185.503 20.6715 186.059 20.3072 186.513 19.833C189.163 17.3475 192.127 15.0666 195.577 13.8289C198.795 12.6745 202.496 12.4377 205.697 13.7691C211.758 16.2896 213.58 23.6046 212.733 29.5632C212.178 33.4627 210.705 37.155 209.197 40.7672C208.428 42.6117 207.572 44.4444 206.983 46.3574C206.456 48.0701 206.191 49.9081 206.623 51.6727C207.001 53.2128 207.895 54.6283 209.325 55.3744C210.623 56.0521 212.271 56.1691 213.544 55.3631C215.383 54.1979 215.797 50.9805 213.731 49.808C212.36 49.0301 210.604 49.4123 209.467 50.434C208.193 51.5795 207.672 53.2949 207.409 54.9365C206.913 58.0384 207.303 61.8583 210.361 63.5178C211.621 64.2015 213.123 64.3861 214.44 63.75C214.537 63.6987 214.611 63.6115 214.645 63.5068C214.679 63.4022 214.672 63.2882 214.624 63.189C214.576 63.0898 214.492 63.0131 214.389 62.975C214.285 62.937 214.171 62.9406 214.071 62.9852V62.9852Z" fill="#3F3D56"/>
<path d="M138.505 53.0072C138.895 48.0485 132.124 34.7899 135.037 31.2008C135.398 30.7523 135.777 30.3185 136.174 29.8993C137.458 28.527 138.904 27.3151 140.478 26.2897C140.744 26.112 141.013 25.943 141.283 25.7798C142.245 25.2047 143.247 24.6985 144.28 24.2648C144.467 24.1887 144.657 24.1129 144.847 24.0371C150.057 22.0173 155.813 21.915 161.091 23.7484C166.369 25.5817 170.827 29.2318 173.671 34.0491C176.515 38.8664 177.561 44.5384 176.622 50.0558C175.684 55.5733 172.822 60.5782 168.547 64.1801C168.322 64.3724 168.092 64.5587 167.856 64.7417C165.519 66.57 162.858 67.9387 160.013 68.7754C160.01 68.7752 160.01 68.778 160.007 68.7778C155.741 70.0258 151.21 70.0461 146.933 68.8363L146.927 68.8359C146.833 68.8086 146.739 68.7812 146.645 68.7511C136.184 65.654 137.611 64.3385 138.505 53.0072Z" fill="#FFF2EB"/>
<path d="M144.268 24.3718C144.268 24.3358 144.272 24.2999 144.28 24.2648C144.467 24.1887 144.657 24.1129 144.847 24.0371C144.927 24.0692 144.995 24.1247 145.043 24.1964C145.09 24.2682 145.115 24.3526 145.113 24.4387C145.115 24.8679 145.164 25.2956 145.259 25.714C146.079 29.3457 149.789 31.4626 153.102 32.3694C157.155 33.4826 161.51 33.4979 165.292 35.5096C166.845 36.2912 168.186 37.4402 169.197 38.8573C170.249 40.4134 170.691 42.3043 170.436 44.1666C169.859 48.5482 166.491 51.7463 165.105 55.8141C164.534 57.4898 164.393 59.2735 165.043 60.9493C165.594 62.3731 166.682 63.6718 168.246 63.966C168.309 63.9757 168.37 64.0002 168.422 64.0373C168.474 64.0745 168.517 64.1234 168.547 64.1801C168.322 64.3724 168.092 64.5587 167.856 64.7417C167.574 64.6763 167.299 64.5813 167.037 64.4581C165.54 63.7433 164.572 62.3178 164.088 60.7658C163.53 58.9694 163.742 57.1006 164.368 55.3524C165.826 51.2762 169.429 47.9235 169.653 43.423C169.847 39.5222 166.647 36.8266 163.309 35.5287C159.178 33.9238 154.548 34.1622 150.478 32.3605C147.276 30.9428 144.283 28.1017 144.268 24.3718Z" fill="#3F3D56"/>
<path d="M140.478 26.2897C140.744 26.112 141.013 25.9429 141.283 25.7798C141.315 25.8193 141.337 25.865 141.35 25.914C141.362 25.963 141.364 26.014 141.354 26.0637C140.926 29.7034 141.901 33.3697 144.081 36.3128C145.023 37.6041 146.177 38.7266 147.492 39.6328C148.869 40.5739 150.418 41.1423 151.946 41.7801C153.45 42.4075 154.971 43.1441 156.06 44.3918C157.17 45.6639 157.636 47.3053 157.686 48.9677C157.803 52.9074 155.568 56.3428 155.107 60.177C154.901 61.8874 155.147 63.5852 156.1 65.0494C156.925 66.313 158.216 67.2331 159.765 67.174C160.277 67.152 160.244 67.8991 159.793 68.0083C159.762 68.0157 159.73 68.0199 159.698 68.0207C157.896 68.0882 156.354 66.9778 155.4 65.5165C154.29 63.8184 154.016 61.8343 154.297 59.8488C154.843 56.0071 157.164 52.4564 156.814 48.4813C156.766 47.6471 156.544 46.8324 156.162 46.0898C155.779 45.3473 155.245 44.6935 154.595 44.1708C153.254 43.1247 151.617 42.572 150.064 41.9265C148.511 41.314 147.066 40.4576 145.783 39.3896C144.529 38.3087 143.457 37.034 142.605 35.6138C140.904 32.8201 140.157 29.5468 140.478 26.2897Z" fill="#3F3D56"/>
<path d="M135.037 31.2007C135.398 30.7522 135.777 30.3184 136.174 29.8992C135.625 32.062 135.531 34.3159 135.899 36.517C136.342 39.2865 137.476 41.8991 139.194 44.1132C140.056 45.2157 141.071 46.1884 142.209 47.0014C143.511 47.928 144.949 48.7377 145.811 50.1349C147.681 53.1682 145.972 56.7986 145.053 59.827C144.571 61.4076 144.244 63.1055 144.778 64.7154C145.193 65.9637 146.112 67.1752 147.47 67.4218C148.004 67.518 147.939 68.3678 147.403 68.2685C147.302 68.2492 147.202 68.2271 147.102 68.2021C145.628 67.8128 144.564 66.604 144.047 65.1772C143.378 63.3152 143.691 61.3862 144.254 59.5366C145.179 56.4945 147.083 52.5188 144.457 49.7665C143.35 48.6054 141.85 47.8931 140.64 46.846C139.555 45.912 138.603 44.8344 137.809 43.6429C135.376 39.9837 134.388 35.549 135.037 31.2007Z" fill="#3F3D56"/>
<path d="M151.232 91.8235V91.2781H142.107V78.5559H141.564V91.2781H131.107V81.4533C130.924 81.5973 130.743 81.7456 130.565 81.898V91.2781H123.658C123.581 91.4585 123.507 91.6403 123.437 91.8235H130.565V102.514H121.715C121.724 102.697 121.736 102.877 121.751 103.059H130.565V111.588H123.962C124.043 111.771 124.128 111.951 124.218 112.13H130.565V119.3H131.107V112.13H141.564V119.3H142.107V112.13H151.232V111.588H142.107C142.107 110.468 142.327 109.359 142.755 108.324C143.182 107.289 143.809 106.349 144.6 105.557C145.39 104.765 146.329 104.137 147.362 103.708C148.394 103.279 149.501 103.059 150.619 103.059H151.232V102.514H142.107V91.8235H151.232ZM141.564 111.588H131.107V103.059H141.564V111.588ZM141.564 102.514H131.107V102.3C131.107 100.924 131.377 99.5617 131.903 98.2906C132.428 97.0195 133.199 95.8645 134.17 94.8917C135.141 93.9189 136.294 93.1472 137.562 92.6207C138.831 92.0943 140.191 91.8234 141.564 91.8235V102.514Z" fill="#3F3D56"/>
<path d="M125.419 191.913L47.5033 192C47.4141 192 47.3285 191.964 47.2654 191.901C47.2024 191.838 47.1669 191.752 47.1669 191.663C47.1669 191.573 47.2024 191.488 47.2654 191.425C47.3285 191.361 47.4141 191.326 47.5033 191.326L125.419 191.239C125.463 191.239 125.507 191.247 125.548 191.264C125.589 191.281 125.626 191.306 125.657 191.337C125.689 191.368 125.714 191.406 125.731 191.447C125.747 191.488 125.756 191.532 125.756 191.576C125.756 191.62 125.747 191.664 125.731 191.705C125.714 191.746 125.689 191.783 125.657 191.815C125.626 191.846 125.589 191.871 125.548 191.888C125.507 191.904 125.463 191.913 125.419 191.913Z" fill="#CACACA"/>
</g>
<defs>
<clipPath id="clip0_363_737">
<rect width="220" height="192" fill="white"/>
</clipPath>
</defs>
</svg>
