<svg width="220" height="212" viewBox="0 0 220 212" fill="none" xmlns="http://www.w3.org/2000/svg">
<g clip-path="url(#clip0_363_875)">
<path d="M97.4188 109.285L105.71 123.666L114 138.047H80.8379L89.1284 123.666L97.4188 109.285Z" fill="#FFF2EB"/>
<path d="M50.3077 81.0408H15.5385V115.861H50.3077V81.0408Z" fill="#E6E6E6"/>
<path d="M75.2308 58.8545C87.551 58.8545 97.5385 48.8525 97.5385 36.5144C97.5385 24.1763 87.551 14.1743 75.2308 14.1743C62.9106 14.1743 52.9231 24.1763 52.9231 36.5144C52.9231 48.8525 62.9106 58.8545 75.2308 58.8545Z" fill="#FFF2EB"/>
<path d="M95.3077 73.8166C95.3077 73.0852 95.5243 72.3703 95.93 71.7623C96.3357 71.1542 96.9124 70.6802 97.5871 70.4004C98.2617 70.1205 99.0041 70.0473 99.7204 70.1899C100.437 70.3326 101.095 70.6848 101.611 71.2019C102.127 71.7191 102.479 72.3779 102.621 73.0952C102.764 73.8125 102.691 74.556 102.411 75.2316C102.132 75.9073 101.659 76.4848 101.051 76.8911C100.444 77.2974 99.7303 77.5142 99 77.5142C98.0208 77.5142 97.0816 77.1247 96.3892 76.4312C95.6967 75.7378 95.3077 74.7973 95.3077 73.8166ZM95.9231 73.8166C95.9231 74.426 96.1036 75.0218 96.4417 75.5285C96.7798 76.0352 97.2603 76.4302 97.8226 76.6634C98.3848 76.8966 99.0035 76.9577 99.6003 76.8388C100.197 76.7199 100.745 76.4264 101.176 75.9954C101.606 75.5645 101.899 75.0155 102.018 74.4177C102.137 73.82 102.076 73.2004 101.843 72.6374C101.61 72.0743 101.215 71.5931 100.71 71.2545C100.204 70.9159 99.6086 70.7352 99 70.7352C98.184 70.7352 97.4014 71.0598 96.8243 71.6377C96.2473 72.2156 95.9231 72.9993 95.9231 73.8166Z" fill="#CCCCCC"/>
<path d="M63.5188 138.137L58.0837 132.301L63.9108 126.858L69.3459 132.694L63.5188 138.137ZM58.9502 132.332L63.549 137.269L68.4794 132.664L63.8807 127.726L58.9502 132.332Z" fill="#CCCCCC"/>
<path d="M18.6308 55.1222L14.2074 50.3728L18.9511 45.9436L23.3745 50.693L18.6308 55.1222ZM14.9123 50.3975L18.6566 54.4174L22.6696 50.6689L18.9265 46.6502L14.9123 50.3975Z" fill="#CCCCCC"/>
<path d="M80.7692 61.6279C74.6837 61.6279 68.7347 59.8207 63.6748 56.4348C58.6148 53.049 54.671 48.2365 52.3422 42.606C50.0133 36.9754 49.404 30.7798 50.5912 24.8025C51.7785 18.8251 54.709 13.3346 59.0121 9.02521C63.3153 4.7158 68.7978 1.78106 74.7665 0.592095C80.7351 -0.596868 86.9218 0.0133512 92.5441 2.34559C98.1665 4.67782 102.972 8.62732 106.353 13.6947C109.734 18.762 111.538 24.7195 111.538 30.814C111.538 38.9863 108.297 46.824 102.526 52.6027C96.756 58.3815 88.9298 61.6279 80.7692 61.6279ZM80.7692 0.616293C74.8054 0.616293 68.9754 2.38736 64.0167 5.70552C59.0579 9.02368 55.193 13.7399 52.9107 19.2578C50.6284 24.7757 50.0313 30.8475 51.1948 36.7052C52.3583 42.563 55.2302 47.9437 59.4472 52.1669C63.6643 56.3902 69.0372 59.2662 74.8865 60.4314C80.7358 61.5966 86.7987 60.9986 92.3086 58.713C97.8185 56.4274 102.528 52.5569 105.841 47.5909C109.155 42.6249 110.923 36.7865 110.923 30.814C110.923 22.805 107.746 15.1242 102.091 9.46099C96.4363 3.79783 88.7665 0.616293 80.7692 0.616293Z" fill="#3F3D56"/>
<path d="M61.8279 54.7885L53.8794 71.355L54.4341 71.6219L62.3826 55.0554L61.8279 54.7885Z" fill="#3F3D56"/>
<path d="M59.9929 93.4026L59.7 93.9446L94.7116 112.92L95.0045 112.378L59.9929 93.4026Z" fill="#3F3D56"/>
<path d="M60.1538 116.169H15.2307V71.1802H60.1538V116.169ZM15.8461 115.552H59.5384V71.7965H15.8461V115.552Z" fill="#3F3D56"/>
<path d="M126.772 138.355H80.3049L103.538 98.0542L126.772 138.355ZM81.3708 137.738H125.706L103.538 99.2868L81.3708 137.738Z" fill="#3F3D56"/>
<path d="M220 211.384H0V211.999H220V211.384Z" fill="#E6E6E6"/>
<path d="M63.4775 192.165C65.0432 192.717 66.7241 192.855 68.3585 192.566C69.9929 192.278 71.5256 191.573 72.8089 190.519C76.0772 187.772 77.1022 183.247 77.9357 179.056L80.4018 166.661L75.2388 170.221C71.5255 172.781 67.7289 175.424 65.1582 179.132C62.5874 182.841 61.4659 187.903 63.5308 191.916" fill="#E6E6E6"/>
<path d="M64.2748 208.036C63.625 203.294 62.9563 198.492 63.4133 193.7C63.8182 189.444 65.1148 185.287 67.7545 181.878C69.1556 180.072 70.8606 178.525 72.7927 177.306C73.2963 176.988 73.76 177.787 73.2585 178.104C69.9154 180.22 67.3296 183.344 65.8739 187.027C64.2662 191.121 64.008 195.585 64.285 199.935C64.4523 202.566 64.808 205.179 65.1653 207.79C65.1935 207.908 65.1759 208.032 65.116 208.138C65.0562 208.243 64.9585 208.322 64.8428 208.358C64.7248 208.39 64.599 208.374 64.4927 208.313C64.3864 208.253 64.3083 208.153 64.2751 208.035L64.2748 208.036Z" fill="#F2F2F2"/>
<path d="M107.29 201.505C108.051 202.404 109.029 203.092 110.132 203.503C111.235 203.913 112.424 204.033 113.586 203.849C116.569 203.342 118.817 200.942 120.826 198.679L126.772 191.984L122.341 192.307C119.154 192.54 115.886 192.793 112.988 194.138C110.089 195.483 107.589 198.174 107.416 201.371" fill="#E6E6E6"/>
<path d="M102.188 210.842C103.234 208.323 104.286 205.768 105.89 203.544C107.314 201.568 109.148 199.899 111.429 198.984C112.637 198.5 113.921 198.232 115.222 198.19C115.56 198.179 115.56 198.706 115.222 198.717C112.969 198.792 110.799 199.582 109.023 200.972C107.054 202.522 105.642 204.642 104.526 206.861C103.851 208.202 103.274 209.59 102.698 210.976C102.678 211.043 102.634 211.099 102.574 211.133C102.514 211.168 102.444 211.178 102.376 211.163C102.309 211.144 102.252 211.1 102.217 211.04C102.182 210.979 102.173 210.908 102.19 210.84L102.188 210.842Z" fill="#F2F2F2"/>
<path d="M68.9523 200.428C69.6236 201.45 70.5466 202.282 71.6322 202.843C72.7178 203.405 73.9295 203.676 75.1504 203.633C78.2889 203.483 80.9043 201.291 83.2584 199.208L90.2231 193.05L85.6138 192.829C82.299 192.67 78.8987 192.521 75.7415 193.546C72.5843 194.571 69.6726 197.033 69.0953 200.306" fill="#E6E6E6"/>
<path d="M62.4378 210.761C65.5664 205.217 69.195 199.056 75.6793 197.087C77.4821 196.541 79.3725 196.346 81.2486 196.511C81.8399 196.562 81.6922 197.475 81.1021 197.424C77.9572 197.163 74.8184 197.994 72.2141 199.779C69.7079 201.487 67.7566 203.862 66.1052 206.381C65.0935 207.924 64.1873 209.532 63.2812 211.138C62.9916 211.651 62.1449 211.28 62.4378 210.761Z" fill="#F2F2F2"/>
<path d="M7.22551 200.942C8.35853 201.341 9.57501 201.441 10.7578 201.232C11.9405 201.024 13.0497 200.513 13.9784 199.751C16.3437 197.763 17.0861 194.487 17.6886 191.454L19.4732 182.484L15.7369 185.061C13.0498 186.913 10.3024 188.826 8.44182 191.51C6.58121 194.194 5.76921 197.857 7.26398 200.761" fill="#E6E6E6"/>
<path d="M7.54494 211.803C7.16678 209.044 6.77787 206.25 7.0431 203.462C7.27879 200.985 8.03294 198.567 9.56894 196.584C10.3842 195.533 11.3762 194.633 12.5003 193.924C12.7936 193.739 13.0631 194.204 12.7714 194.388C10.8264 195.619 9.322 197.437 8.47509 199.579C7.53971 201.962 7.38956 204.559 7.55202 207.09C7.64956 208.62 7.85602 210.14 8.06433 211.659C8.0811 211.728 8.071 211.801 8.03611 211.862C8.00122 211.924 7.94417 211.97 7.87663 211.99C7.80793 212.009 7.73469 212 7.67282 211.964C7.61095 211.929 7.56543 211.871 7.54617 211.802L7.54494 211.803Z" fill="#F2F2F2"/>
<path d="M35.3772 211.83C35.296 211.698 33.3819 208.497 32.7185 201.85C32.1099 195.753 32.5013 185.475 37.8237 171.138C47.9074 143.977 35.5 122.062 35.3732 121.844L35.9852 121.488C36.016 121.544 39.2191 127.131 41.1102 136.028C43.6092 147.824 42.6992 160.088 38.4868 171.385C28.4203 198.499 35.9043 211.335 35.9809 211.461L35.3772 211.83Z" fill="#3F3D56"/>
<path d="M45.9376 137.253C48.4772 137.253 50.536 135.191 50.536 132.648C50.536 130.105 48.4772 128.043 45.9376 128.043C43.3979 128.043 41.3391 130.105 41.3391 132.648C41.3391 135.191 43.3979 137.253 45.9376 137.253Z" fill="#FFF2EB"/>
<path d="M32.4954 173.032C35.0351 173.032 37.0939 170.971 37.0939 168.427C37.0939 165.884 35.0351 163.822 32.4954 163.822C29.9558 163.822 27.897 165.884 27.897 168.427C27.897 170.971 29.9558 173.032 32.4954 173.032Z" fill="#FFF2EB"/>
<path d="M37.7271 211.692C37.7271 211.692 33.8031 202.02 45.5748 194.765L37.7271 211.692Z" fill="#E6E6E6"/>
<path d="M32.9012 211.516C32.9012 211.516 31.7043 204.622 22.4397 204.681L32.9012 211.516Z" fill="#E6E6E6"/>
<path d="M43.6154 155.414C43.6154 154.683 43.8319 153.968 44.2376 153.36C44.6433 152.752 45.22 152.278 45.8947 151.998C46.5694 151.718 47.3118 151.645 48.028 151.788C48.7442 151.931 49.4021 152.283 49.9185 152.8C50.4349 153.317 50.7866 153.976 50.929 154.693C51.0715 155.41 50.9984 156.154 50.7189 156.83C50.4394 157.505 49.9662 158.083 49.359 158.489C48.7518 158.895 48.0379 159.112 47.3077 159.112C46.3284 159.112 45.3892 158.723 44.6968 158.029C44.0044 157.336 43.6154 156.395 43.6154 155.414ZM44.2307 155.414C44.2307 156.024 44.4112 156.62 44.7493 157.126C45.0874 157.633 45.5679 158.028 46.1302 158.261C46.6924 158.495 47.3111 158.556 47.9079 158.437C48.5048 158.318 49.0531 158.024 49.4834 157.593C49.9137 157.162 50.2067 156.613 50.3255 156.016C50.4442 155.418 50.3833 154.798 50.1504 154.235C49.9175 153.672 49.5231 153.191 49.0171 152.852C48.5111 152.514 47.9162 152.333 47.3077 152.333C46.4916 152.333 45.709 152.658 45.1319 153.236C44.5549 153.813 44.2307 154.597 44.2307 155.414Z" fill="#CCCCCC"/>
<path d="M32.4954 144.001C32.4954 143.27 32.7119 142.555 33.1176 141.947C33.5233 141.339 34.1 140.865 34.7747 140.585C35.4494 140.305 36.1918 140.232 36.908 140.374C37.6242 140.517 38.2821 140.869 38.7985 141.386C39.3149 141.903 39.6666 142.562 39.809 143.28C39.9515 143.997 39.8784 144.74 39.5989 145.416C39.3195 146.092 38.8462 146.669 38.239 147.075C37.6318 147.482 36.9179 147.699 36.1877 147.699C35.2084 147.699 34.2693 147.309 33.5768 146.616C32.8844 145.922 32.4954 144.982 32.4954 144.001ZM33.1107 144.001C33.1107 144.61 33.2912 145.206 33.6293 145.713C33.9674 146.22 34.4479 146.615 35.0102 146.848C35.5724 147.081 36.1911 147.142 36.7879 147.023C37.3848 146.904 37.9331 146.611 38.3634 146.18C38.7937 145.749 39.0867 145.2 39.2055 144.602C39.3242 144.004 39.2633 143.385 39.0304 142.822C38.7975 142.259 38.4031 141.777 37.8971 141.439C37.3911 141.1 36.7962 140.919 36.1877 140.919C35.3716 140.919 34.589 141.244 34.012 141.822C33.4349 142.4 33.1107 143.184 33.1107 144.001Z" fill="#CCCCCC"/>
<path d="M196.281 135.155C195.822 135.486 195.296 135.71 194.739 135.812C194.183 135.915 193.612 135.893 193.065 135.748C192.084 135.486 191.247 134.846 190.738 133.966C190.229 133.087 190.089 132.041 190.35 131.059C190.363 131.009 190.377 130.959 190.393 130.91C190.449 130.73 190.52 130.555 190.603 130.386L183.079 96.5577C182.964 96.1716 182.926 95.7666 182.967 95.3657C183.009 94.9649 183.128 94.5761 183.319 94.2215C183.51 93.867 183.77 93.5536 184.082 93.2993C184.394 93.045 184.753 92.8548 185.138 92.7394C185.524 92.6241 185.928 92.586 186.329 92.6272C186.729 92.6684 187.117 92.7881 187.471 92.9796C187.825 93.1711 188.138 93.4305 188.392 93.7431C188.646 94.0557 188.836 94.4153 188.951 94.8014C188.957 94.8224 188.963 94.8436 188.969 94.8648L196.071 128.795C196.605 129.127 197.049 129.586 197.363 130.131C197.677 130.676 197.852 131.29 197.873 131.919C197.894 132.548 197.76 133.172 197.482 133.737C197.204 134.301 196.792 134.789 196.282 135.156L196.281 135.155Z" fill="#9F616A"/>
<path d="M206.273 207.73H202.192L200.25 191.968H206.273L206.273 207.73Z" fill="#A0616A"/>
<path d="M207.313 211.692H194.155V211.525C194.155 210.165 194.695 208.861 195.655 207.899C196.616 206.937 197.918 206.397 199.276 206.396H207.313V211.692Z" fill="#2F2E41"/>
<path d="M165.362 207.602L161.479 206.344L164.476 190.748L170.207 192.604L165.362 207.602Z" fill="#A0616A"/>
<path d="M165.134 211.692L152.616 207.637L152.667 207.478C153.086 206.184 154 205.109 155.209 204.49C156.419 203.871 157.824 203.758 159.116 204.177L166.762 206.654L165.134 211.692Z" fill="#2F2E41"/>
<path d="M183.669 87.4291C187.471 87.4291 190.553 84.3423 190.553 80.5345C190.553 76.7267 187.471 73.6399 183.669 73.6399C179.866 73.6399 176.784 76.7267 176.784 80.5345C176.784 84.3423 179.866 87.4291 183.669 87.4291Z" fill="#9F616A"/>
<path d="M192.923 107.336C193.881 103.775 189.497 92.6071 189.139 91.1896C187.43 90.7946 183.469 91.552 181.034 91.05C177.573 93.9466 174.819 98.0843 172.917 100.048C170.938 102.089 169.662 103.473 171.707 108.251C174.185 114.042 173.634 120.109 173.634 120.109L175.287 134.726C175.287 134.726 168.402 154.03 168.953 166.992L162.619 198.706C162.619 198.706 164.546 202.016 168.402 200.361C168.402 200.361 177.49 184.091 176.663 172.231L186.577 150.168C186.577 150.168 193.462 171.128 195.39 173.058L200.346 202.843C200.346 202.843 205.028 204.222 207.231 202.843C207.231 202.843 208.057 174.161 203.376 169.473C203.376 169.473 198.694 149.617 199.796 144.377C200.897 139.137 201.173 131.14 192.911 123.969C192.911 123.969 192.994 124.007 190.433 119.281L192.923 107.336Z" fill="#2F2E41"/>
<path d="M187.26 69.8778C186.874 69.8786 186.489 69.917 186.11 69.9924C185.426 69.6598 184.675 69.4866 183.915 69.4858H183.715C179.874 69.4858 176.759 72.9678 176.759 77.2617H178.047L178.255 75.677L178.559 77.2617H179.632C179.298 78.5333 179.131 79.8428 179.134 81.1576V89.0724H181.08L182.206 86.1399L181.925 89.0724H194.435L195.459 86.4064L195.203 89.0724H196.612V82.8576C196.611 75.689 192.425 69.8778 187.26 69.8778Z" fill="#2F2E41"/>
<path d="M172.906 139.073C172.346 139.157 171.776 139.116 171.234 138.953C170.693 138.79 170.194 138.509 169.774 138.13C169.401 137.792 169.097 137.385 168.881 136.931C168.665 136.476 168.541 135.984 168.515 135.481C168.489 134.978 168.562 134.475 168.73 134.001C168.898 133.527 169.158 133.09 169.495 132.717C169.53 132.678 169.565 132.64 169.602 132.602C169.734 132.468 169.877 132.345 170.028 132.233L178.752 98.696C178.825 98.2998 178.975 97.9219 179.195 97.5839C179.414 97.246 179.697 96.9545 180.029 96.7262C180.36 96.4979 180.733 96.3373 181.127 96.2534C181.521 96.1696 181.927 96.1642 182.322 96.2376C182.718 96.3109 183.095 96.4616 183.433 96.6811C183.77 96.9005 184.061 97.1843 184.289 97.5164C184.517 97.8484 184.678 98.2222 184.761 98.6163C184.845 99.0104 184.851 99.4172 184.777 99.8135C184.773 99.8365 184.768 99.8594 184.764 99.8824L175.617 133.317C175.94 133.857 176.126 134.468 176.157 135.096C176.188 135.725 176.064 136.351 175.796 136.92C175.528 137.489 175.124 137.983 174.62 138.359C174.116 138.734 173.527 138.979 172.906 139.073Z" fill="#9F616A"/>
</g>
<defs>
<clipPath id="clip0_363_875">
<rect width="220" height="212" fill="white"/>
</clipPath>
</defs>
</svg>
