<svg width="288" height="215" viewBox="0 0 288 215" fill="none" xmlns="http://www.w3.org/2000/svg">
<g clip-path="url(#clip0_311_1324)">
<path d="M275.958 186.63C276.275 177.14 271.941 167.711 263.509 164.477C265.518 174.175 263.813 185.086 258.79 194.664C256.834 198.395 254.295 202.393 254.992 206.198C255.426 208.566 257.105 210.401 259.121 211.564C261.138 212.728 263.487 213.306 265.807 213.873L266.218 214.277C271.395 205.616 275.641 196.119 275.958 186.63Z" fill="#BABABA"/>
<path d="M263.393 164.655C267.62 170.572 269.776 178.159 269.308 185.962C269.24 187.69 268.912 189.397 268.335 191.026C267.699 192.66 266.688 194.122 265.384 195.293C264.178 196.418 262.833 197.447 261.883 198.811C261.414 199.476 261.084 200.23 260.912 201.026C260.741 201.823 260.731 202.646 260.884 203.446C261.238 205.342 262.277 206.901 263.351 208.382C264.543 210.026 265.811 211.711 266.09 213.868C266.124 214.13 266.538 214.004 266.505 213.743C266.019 209.989 262.772 207.807 261.591 204.413C261.04 202.829 260.99 201.001 261.996 199.356C262.875 197.918 264.261 196.856 265.491 195.725C266.779 194.596 267.812 193.203 268.518 191.64C269.173 190.036 269.565 188.335 269.679 186.605C269.983 182.873 269.681 179.116 268.782 175.481C267.817 171.479 266.098 167.699 263.717 164.344C263.571 164.139 263.248 164.451 263.393 164.655L263.393 164.655Z" fill="white"/>
<path d="M269.594 183.415C270.953 183.1 272.18 182.369 273.104 181.324C274.029 180.278 274.605 178.97 274.753 177.581C274.774 177.311 274.356 177.324 274.335 177.595C274.2 178.888 273.663 180.106 272.8 181.078C271.938 182.05 270.793 182.727 269.527 183.013C269.5 183.017 269.474 183.027 269.451 183.041C269.428 183.055 269.408 183.074 269.393 183.095C269.377 183.117 269.366 183.142 269.36 183.168C269.353 183.195 269.353 183.222 269.357 183.249C269.362 183.275 269.371 183.301 269.386 183.323C269.4 183.346 269.419 183.366 269.441 183.381C269.463 183.397 269.488 183.408 269.514 183.414C269.541 183.419 269.568 183.42 269.594 183.415V183.415Z" fill="white"/>
<path d="M266.059 194.792C265.013 194.065 264.133 193.124 263.476 192.031C262.819 190.938 262.4 189.719 262.248 188.452C262.213 188.191 261.798 188.316 261.833 188.577C261.994 189.895 262.433 191.163 263.119 192.299C263.805 193.434 264.724 194.411 265.814 195.165C266.023 195.307 266.267 194.934 266.059 194.792Z" fill="white"/>
<path d="M267.34 171.806C266.87 172.027 266.351 172.125 265.833 172.089C265.315 172.053 264.814 171.885 264.379 171.602C264.173 171.456 263.929 171.83 264.134 171.974C264.616 172.285 265.169 172.47 265.741 172.511C266.313 172.552 266.886 172.447 267.408 172.207C267.462 172.19 267.509 172.154 267.54 172.106C267.572 172.058 267.586 172.001 267.581 171.944C267.577 171.918 267.566 171.893 267.551 171.872C267.536 171.85 267.516 171.832 267.493 171.819C267.47 171.806 267.444 171.798 267.418 171.795C267.391 171.793 267.365 171.797 267.34 171.806Z" fill="white"/>
<path d="M233.696 180.929C233.822 181.024 233.948 181.119 234.073 181.217C235.752 182.497 237.308 183.932 238.721 185.503C238.833 185.622 238.943 185.745 239.051 185.868C242.435 189.742 244.969 194.285 246.49 199.203C247.113 201.208 247.573 203.261 247.863 205.341C248.271 208.241 248.475 211.452 249.805 213.841C249.941 214.091 250.093 214.332 250.262 214.561L265.617 214.822C265.655 214.805 265.692 214.791 265.73 214.774L266.339 214.813C266.331 214.702 266.321 214.588 266.314 214.478C266.31 214.414 266.302 214.35 266.298 214.285C266.294 214.243 266.291 214.2 266.29 214.161C266.288 214.146 266.287 214.132 266.285 214.122C266.284 214.082 266.279 214.047 266.278 214.011C266.223 213.373 266.165 212.735 266.099 212.097C266.1 212.093 266.1 212.093 266.097 212.09C265.595 207.23 264.674 202.427 263.026 198.021C262.977 197.889 262.928 197.753 262.871 197.62C262.124 195.654 261.198 193.761 260.105 191.964C259.508 190.992 258.856 190.055 258.151 189.158C256.327 186.848 254.101 184.889 251.58 183.373C246.533 180.333 240.334 179.096 234.167 180.795C234.009 180.839 233.855 180.882 233.696 180.929Z" fill="#BABABA"/>
<path d="M233.7 181.127C241.029 182.776 247.543 186.877 251.87 192.729C252.852 193.988 253.602 195.412 254.086 196.935C254.517 198.52 254.512 200.192 254.071 201.775C253.69 203.311 253.127 204.864 253.116 206.415C253.107 207.174 253.278 207.925 253.614 208.605C253.95 209.285 254.441 209.876 255.049 210.33C256.514 211.467 258.378 211.947 260.227 212.35C262.279 212.798 264.422 213.228 265.98 214.598C266.168 214.764 266.458 214.422 266.27 214.256C263.561 211.873 259.366 212.292 256.261 210.59C254.812 209.795 253.657 208.521 253.547 206.736C253.45 205.174 254.029 203.573 254.428 202.018C254.879 200.472 254.945 198.839 254.621 197.262C254.222 195.712 253.532 194.253 252.588 192.963C250.537 190.063 247.979 187.559 245.038 185.571C241.633 183.251 237.818 181.601 233.797 180.708C233.544 180.651 233.448 181.071 233.7 181.127Z" fill="white"/>
<path d="M250.575 190.738C252.637 188.648 253.066 185.522 251.588 183.436C251.443 183.23 251.082 183.494 251.228 183.7C252.612 185.654 252.199 188.539 250.271 190.492C250.069 190.698 250.373 190.942 250.575 190.738V190.738Z" fill="white"/>
<path d="M254.364 201.007C253.075 201.148 251.77 201.026 250.529 200.647C249.288 200.268 248.137 199.641 247.145 198.803C246.956 198.638 246.666 198.979 246.855 199.144C247.889 200.015 249.088 200.665 250.381 201.056C251.673 201.448 253.032 201.572 254.374 201.422C254.644 201.396 254.634 200.981 254.364 201.007L254.364 201.007Z" fill="white"/>
<path d="M241.531 183.827C241.224 184.288 240.82 184.675 240.346 184.962C239.872 185.248 239.342 185.426 238.791 185.483C238.521 185.505 238.532 185.92 238.801 185.898C239.409 185.833 239.995 185.635 240.519 185.32C241.043 185.005 241.492 184.579 241.835 184.072C241.872 184.032 241.892 183.979 241.891 183.924C241.89 183.869 241.867 183.817 241.829 183.779C241.782 183.747 241.726 183.735 241.67 183.744C241.615 183.753 241.565 183.783 241.531 183.827V183.827Z" fill="white"/>
<path d="M229.129 175.853C229.161 175.817 228.917 175.786 228.463 175.76V160.503H206.48V161.731H196.585C195.424 161.733 194.312 162.195 193.491 163.017C192.671 163.839 192.209 164.954 192.208 166.116V172.426C192.209 173.589 192.67 174.703 193.491 175.526C194.311 176.348 195.424 176.81 196.585 176.811L206.727 176.824L211.18 176.831H211.486L215.943 176.837L228.39 176.854H229.463C229.619 176.677 228.98 176.03 229.129 175.853Z" fill="#555555"/>
<path d="M229.366 176.136C228.639 177.198 228.05 177.159 227.534 176.472C227.263 176.077 227.045 175.648 226.885 175.196C225.318 171.172 224.293 161.94 221.339 165.168C220.756 165.806 220.164 166.438 219.569 167.063C218.464 168.228 217.31 169.492 216.166 170.608C216.166 170.611 216.192 170.487 216.188 170.49C215.624 171.043 216.049 166.261 215.826 164.916C215.778 164.625 215.701 164.495 215.578 164.611C215.568 164.481 215.562 164.35 215.563 164.218C215.562 164.01 215.572 163.803 215.594 163.596C215.613 163.406 215.639 163.214 215.675 163.02L225.333 111.278C225.588 109.923 226.267 108.684 227.272 107.742C228.277 106.8 229.556 106.203 230.923 106.039C231.57 105.966 232.225 105.99 232.865 106.107L234.623 106.436C235.317 106.566 235.985 106.811 236.599 107.16L236.603 107.16C237.777 107.824 238.715 108.839 239.285 110.062C239.856 111.286 240.03 112.658 239.785 113.986L229.366 176.136Z" fill="#555555"/>
<path d="M146.889 205.61L142.354 203.437L148.583 184.449L155.276 187.655L146.889 205.61Z" fill="#F4325E"/>
<path d="M177.289 202.549C176.959 202.755 176.629 202.959 176.296 203.163C175.634 203.57 174.964 203.97 174.295 204.364C173.958 204.561 173.618 204.758 173.282 204.951V204.961L173.262 204.964L173.255 204.968L172.742 205.095L172.006 203.146L171.667 202.248L171.187 200.977L170.308 198.651L165.678 186.405L172.876 184.626L173.145 185.731H173.149L173.282 186.278L175.797 196.495L176.31 198.584L176.326 198.648L176.636 199.896L176.903 200.977L177.199 202.185L177.289 202.549Z" fill="#F4325E"/>
<path d="M220.226 159.542C219.77 160.276 219.304 161.007 218.834 161.731C217.961 163.079 217.065 164.408 216.146 165.716C216.146 165.719 216.143 165.719 216.14 165.722C215.603 166.22 215.011 166.653 214.374 167.014C214.348 167.034 214.318 167.047 214.291 167.064C213.822 167.323 213.323 167.524 212.805 167.661C212.619 167.708 212.429 167.754 212.243 167.801C211.57 167.961 210.904 168.098 210.241 168.218C209.062 168.428 207.896 168.579 206.737 168.672C206.644 168.682 206.55 168.689 206.457 168.695C201.691 169.046 197.051 168.482 192.208 167.558C189.817 167.104 187.375 166.56 184.847 165.996C184.021 165.809 183.192 165.625 182.352 165.442C182.289 165.429 182.222 165.412 182.156 165.399C180.957 165.135 179.738 164.875 178.489 164.618C176.917 164.294 175.295 163.98 173.609 163.683L173.729 166.063C173.829 167.893 174.209 169.697 174.855 171.412C175.574 173.521 176.144 175.189 174.941 178.663L174.362 180.344C174.662 181.18 174.765 182.073 174.663 182.955C174.561 183.837 174.256 184.683 173.772 185.426L173.656 185.603L178.489 197.853L178.802 198.647H176.327L173.283 198.65H168.123L160.679 183.688L160.323 182.974V182.937L161.092 154.183C161.102 153.93 161.122 153.673 161.156 153.419C161.291 152.266 161.655 151.152 162.225 150.141C162.795 149.131 163.56 148.244 164.476 147.533C165.354 146.846 166.359 146.34 167.434 146.046C168.508 145.751 169.63 145.674 170.735 145.818L173.283 146.148L178.489 146.822L182.156 147.299L182.229 147.309L193.044 148.711L193.82 145.541L193.963 145.487L198.517 143.816L214.264 138.033L214.304 138.02L215.34 137.639L215.463 137.839C215.5 137.899 215.537 137.96 215.57 138.02C216.594 139.858 217.427 141.797 218.058 143.806C219.118 147.087 219.991 150.426 220.673 153.806C220.703 153.953 220.729 154.087 220.753 154.207L220.763 154.243C220.773 154.3 220.779 154.337 220.783 154.347C221.146 155.862 220.893 157.71 220.226 159.542Z" fill="#3A3A3A"/>
<path d="M220.891 148.946C220.841 148.732 220.778 148.515 220.711 148.305C220.182 146.713 219.566 145.151 218.866 143.627C218.08 141.892 217.137 140.033 216.015 138.021C215.472 137.047 214.888 136.033 214.263 134.981C213.95 134.454 213.624 133.917 213.287 133.369C213.274 133.344 213.259 133.32 213.244 133.296L213.147 133.136L197.566 135.225L191.764 136.002L191.417 138.899L191.334 139.616C191.331 139.616 191.331 139.616 191.334 139.619L191.101 141.575V141.578L190.791 144.161L190.764 144.157L182.154 143.04L173.281 141.888L168.515 141.271C167.41 141.127 166.288 141.204 165.214 141.499C164.139 141.793 163.134 142.299 162.256 142.986C161.341 143.697 160.576 144.584 160.005 145.595C159.435 146.605 159.072 147.72 158.936 148.872C158.906 149.106 158.886 149.346 158.876 149.583L154.379 160.258C151.689 166.642 149.975 173.396 149.297 180.292L145.999 190.854L146.469 190.897L153.457 191.548L155.302 191.721L159.365 185.778C159.828 185.101 160.268 184.403 160.678 183.689C161.352 182.523 161.952 181.315 162.473 180.072L171.263 159.117C171.942 159.233 172.615 159.345 173.281 159.45C176.362 159.951 179.32 160.359 182.154 160.675C191.371 161.706 199.351 161.786 206.456 160.912C208.451 160.668 210.379 160.348 212.241 159.951C212.924 159.807 213.598 159.653 214.263 159.487C214.419 159.45 214.573 159.414 214.726 159.374C216.102 159.018 217.368 158.322 218.406 157.35C219.445 156.377 220.224 155.159 220.671 153.808C221.205 152.241 221.282 150.554 220.891 148.946Z" fill="#3A3A3A"/>
<path d="M148.337 202.509L143.431 200.153L142.662 199.783L141.433 202.806L132.853 204.698C132.428 204.791 132.045 205.018 131.759 205.345C131.472 205.672 131.297 206.082 131.26 206.516C131.223 206.949 131.325 207.383 131.552 207.755C131.778 208.126 132.117 208.415 132.52 208.579L140.903 212.006L143.564 209.607L142.912 212.827L146.069 214.118L149.53 203.083L148.337 202.509Z" fill="#3A3A3A"/>
<path d="M178.489 197.853L178.802 198.647H178.489V197.853Z" fill="#3A3A3A"/>
<path d="M119.868 140.102C119.868 138.313 119.268 136.862 118.532 136.858H63.0782C62.3388 136.862 61.7426 138.313 61.7393 140.102V213.727C61.7393 213.893 61.6776 214.053 61.5662 214.176C61.4549 214.299 61.3018 214.376 61.1368 214.393C60.5982 214.444 60.0596 214.493 59.521 214.537C59.5077 214.537 59.4943 214.541 59.481 214.541C59.1879 214.567 58.8948 214.587 58.6017 214.611H58.5984C58.4476 214.331 58.2986 214.05 58.1513 213.765C58.1015 213.67 58.0755 213.563 58.0754 213.455V135.894C58.0754 135.4 58.0954 134.903 58.1287 134.412C58.1763 133.739 58.2597 133.068 58.3785 132.404C58.9414 129.304 60.2138 127.205 61.6593 127.198H119.947C120.158 127.199 120.367 127.244 120.56 127.328C120.844 127.454 121.101 127.634 121.316 127.859C121.609 128.163 121.858 128.505 122.059 128.876C122.772 130.134 123.282 132.01 123.461 134.192C123.461 134.212 123.465 134.232 123.465 134.252C123.511 134.793 123.535 135.343 123.531 135.894L123.578 143.045L123.608 147.309L123.698 160.69L123.731 165.442L123.878 214.227C123.878 214.404 123.808 214.574 123.683 214.699C123.558 214.824 123.388 214.894 123.212 214.894H120.534C120.357 214.894 120.188 214.824 120.063 214.699C119.938 214.574 119.868 214.404 119.868 214.227L119.868 140.102Z" fill="#555555"/>
<path d="M80.3387 107.36L76.4814 124.363L74.0166 127.068H72.2383L79.5673 96.1536L79.9297 101.405V101.409L80.3387 107.36Z" fill="#555555"/>
<path d="M98.9023 124.737L76.2732 124.593L74.2647 124.58L72.8325 124.57L71.1638 124.56H71.1505C70.9084 124.56 70.6763 124.656 70.5043 124.827L67.6865 127.65C67.6241 127.711 67.5733 127.784 67.5366 127.863C67.519 127.886 67.5045 127.91 67.4933 127.937C67.4323 128.079 67.4071 128.233 67.4199 128.387C67.4327 128.541 67.4831 128.69 67.5667 128.82C67.6503 128.95 67.7645 129.057 67.8992 129.132C68.034 129.208 68.1851 129.248 68.3393 129.251H97.6533C97.8292 129.251 98.0013 129.2 98.1499 129.106C98.2984 129.011 98.4172 128.877 98.4926 128.718L98.7224 128.217L99.1954 127.199L99.7316 126.051C99.7889 125.929 99.8185 125.796 99.8182 125.661C99.8169 125.417 99.7202 125.184 99.5489 125.011C99.3776 124.838 99.1454 124.74 98.9023 124.737Z" fill="#555555"/>
<path opacity="0.17" d="M98.7224 128.216L98.491 128.719C98.4157 128.878 98.2972 129.012 98.1491 129.106C98.001 129.201 97.8294 129.251 97.6539 129.252H68.3388C68.1846 129.249 68.0335 129.208 67.8988 129.133C67.7641 129.058 67.65 128.951 67.5665 128.821C67.483 128.691 67.4327 128.543 67.4201 128.389C67.4075 128.235 67.4329 128.08 67.4941 127.938C67.5044 127.912 67.5187 127.887 67.5365 127.865L98.7224 128.216Z" fill="#222222"/>
<path opacity="0.17" d="M79.9297 101.405V101.409L73.6539 127.068H72.2383L79.5673 96.1536L79.9297 101.405Z" fill="#222222"/>
<path d="M87.6311 106.107L78.7479 38.3987C78.7154 38.145 78.5836 37.9145 78.3816 37.758L72.2663 30.0899L71.7167 29.6661C71.5131 29.5117 71.2572 29.4434 71.0039 29.4759L70.0847 29.5994C69.8311 29.6321 69.601 29.7645 69.4448 29.9672C69.2886 30.17 69.2193 30.4266 69.252 30.6806L78.4582 100.835V100.838L79.0211 105.129L79.6905 110.225V110.231L80.7297 118.16C80.7463 118.296 80.7921 118.426 80.864 118.543C80.9358 118.659 81.0321 118.758 81.1461 118.834C81.2581 118.911 81.3852 118.964 81.519 118.988C81.6529 119.012 81.7903 119.007 81.9221 118.974L82.505 118.827C82.7283 118.77 82.9241 118.635 83.0579 118.447L83.3177 118.076L83.4376 117.903L87.4612 106.791C87.6024 106.593 87.6631 106.348 87.6311 106.107Z" fill="#555555"/>
<path opacity="0.17" d="M72.2648 30.0901L83.4387 117.904L83.3173 118.076L83.0584 118.445C82.9248 118.634 82.7288 118.769 82.5053 118.826L81.9216 118.973C81.7895 119.006 81.6519 119.01 81.5179 118.986C81.3839 118.962 81.2565 118.91 81.144 118.833C81.0315 118.757 80.9364 118.657 80.865 118.541C80.7936 118.425 80.7474 118.295 80.7295 118.16L69.2534 30.6814C69.2202 30.4274 69.289 30.1706 69.4447 29.9674C69.6004 29.7641 69.8303 29.6312 70.0838 29.5977L71.0055 29.4764C71.1305 29.4594 71.2577 29.4676 71.3795 29.5004C71.5014 29.5332 71.6155 29.59 71.7153 29.6674L72.2648 30.0901Z" fill="#222222"/>
<path d="M72.594 32.6016L78.5238 41.0809L85.5716 94.8048L81.7506 102.399L72.594 32.6016Z" fill="#FF5B00"/>
<path d="M200.031 214.335L195.965 214.412L207.267 175.077L211.334 176.335L200.031 214.335Z" fill="#555555"/>
<path d="M226.701 214.41L222.638 214.334L211.486 176.831L211.333 176.337L213.941 175.529C214.458 175.539 214.994 175.546 215.547 175.553L215.943 176.837L226.701 214.41Z" fill="#555555"/>
<path d="M176.78 198.817L171.639 200.601L170.832 200.88L172.082 203.895L167.314 211.287C167.078 211.653 166.965 212.084 166.991 212.518C167.017 212.953 167.181 213.367 167.459 213.702C167.737 214.036 168.115 214.272 168.537 214.376C168.958 214.48 169.402 214.447 169.803 214.28L178.167 210.805L178.373 207.225L180.171 209.973L183.322 208.665L178.03 198.384L176.78 198.817Z" fill="#3A3A3A"/>
<path d="M145.578 88.409C145.822 88.8848 146.167 89.3012 146.589 89.629C147.01 89.9567 147.499 90.1879 148.019 90.3061C148.54 90.4243 149.08 90.4268 149.602 90.3132C150.123 90.1997 150.614 89.973 151.038 89.649L161.848 96.8384L161.869 90.0835L151.6 84.2919C151.01 83.6132 150.191 83.1751 149.3 83.0606C148.409 82.9461 147.506 83.1632 146.764 83.6707C146.022 84.1782 145.491 84.9408 145.272 85.8141C145.054 86.6874 145.163 87.6107 145.578 88.409V88.409Z" fill="#F4325E"/>
<path d="M153.654 91.5311L158.698 85.7827L179.234 97.9965L206.456 95.4989C207.802 95.3755 209.158 95.5504 210.429 96.0111C211.699 96.4719 212.853 97.2072 213.808 98.1649C214.763 99.1225 215.496 100.279 215.954 101.552C216.413 102.826 216.586 104.185 216.462 105.533C216.234 107.967 215.052 110.212 213.175 111.774C211.297 113.336 208.878 114.088 206.447 113.866L175.788 111.023L153.654 91.5311Z" fill="#F6F6F6"/>
<path d="M216.837 91.6198L216.79 91.5603L203.923 90.2883L195.23 105.63C187.757 114.782 193.187 121.094 193.512 122.033L190.919 134.015L191.5 138.025L191.79 139.216L221.399 154.716L215.314 134.405L221.256 115.882C222.573 111.786 222.859 107.428 222.088 103.195C221.317 98.9617 219.514 94.9853 216.837 91.6198Z" fill="#F6F6F6"/>
<path d="M230.935 78.1195C230.941 78.283 230.945 78.4465 230.945 78.6067C230.942 80.374 230.522 82.1155 229.718 83.689C228.915 85.2625 227.752 86.6232 226.323 87.66C224.894 88.6968 223.241 89.3803 221.499 89.6545C219.756 89.9287 217.973 89.786 216.296 89.2379L214.241 88.5672C214.224 88.5605 214.204 88.5572 214.188 88.5505L210.8 87.4427C210.789 87.2993 210.791 87.1552 210.807 87.0122C205.754 84.8499 212.739 77.7457 214.474 72.4101C214.744 71.5792 205.468 72.1999 205.907 71.4891C205.811 71.4391 205.714 71.389 205.624 71.339C207.191 68.8616 209.508 66.951 212.235 65.886C214.963 64.821 217.959 64.6575 220.786 65.4194C220.859 65.436 220.936 65.4594 221.009 65.4794C227.591 65.6429 231.048 70.2378 231.048 76.2041C231.048 76.8442 231.01 77.4838 230.935 78.1195Z" fill="#3A3A3A"/>
<path d="M225.232 80.4685C224.349 83.1779 222.428 85.4251 219.892 86.716C217.356 88.0069 214.411 88.2358 211.706 87.3525C211.4 87.2524 211.1 87.1389 210.807 87.0121C208.345 85.9551 206.368 84.0137 205.262 81.5696C204.157 79.1256 204.005 76.3557 204.835 73.8048C205.098 72.9925 205.458 72.215 205.907 71.489C207.286 69.2518 209.436 67.5986 211.95 66.8425C214.464 66.0865 217.167 66.2799 219.548 67.3862C221.929 68.4926 223.822 70.435 224.87 72.8459C225.918 75.2568 226.047 77.9688 225.232 80.4685Z" fill="#F4325E"/>
<path d="M214.241 88.5672C214.224 88.5605 214.204 88.5571 214.188 88.5505L210.8 87.4426C210.789 87.2993 210.791 87.1551 210.807 87.0122C210.908 85.8949 211.691 84.7248 212.741 83.4616C213.418 82.6537 213.889 81.6931 214.112 80.6626C214.336 79.6321 214.306 78.5625 214.025 77.5462C213.744 76.5298 213.221 75.5971 212.5 74.8285C211.779 74.0599 210.883 73.4785 209.888 73.1343C209.859 73.1242 209.83 73.1142 209.801 73.1041C208.467 72.6577 207.166 72.1181 205.907 71.489C205.811 71.439 205.714 71.3889 205.624 71.3389C204.778 70.8717 204.165 70.4046 203.896 69.9574C204.299 68.7178 204.942 67.57 205.788 66.5795C206.635 65.589 207.667 64.7752 208.827 64.1846C209.988 63.594 211.253 63.2381 212.55 63.1374C213.848 63.0366 215.152 63.1929 216.389 63.5974L218.354 64.238C220.833 65.045 222.892 66.801 224.083 69.1232C225.469 70.1176 226.561 71.5792 227.417 73.3043C231.721 81.9602 223.414 91.517 214.241 88.5672Z" fill="#3A3A3A"/>
<path d="M220.726 140.916C220.726 141.503 220.548 142.076 220.216 142.56C219.885 143.043 219.414 143.415 218.867 143.625C218.608 143.725 218.335 143.786 218.058 143.806C217.985 143.812 217.908 143.816 217.835 143.816H212.243V170.998C212.159 171.108 212.073 171.218 211.986 171.328C211.506 171.942 211.02 172.556 210.527 173.16C210.421 173.294 210.314 173.424 210.211 173.554C210.048 173.751 209.888 173.948 209.728 174.141C209.671 174.208 209.618 174.271 209.565 174.338C209.291 174.665 209.018 174.992 208.739 175.319V175.322C208.735 175.326 208.735 175.326 208.735 175.329L208.595 175.489C208.372 175.753 208.149 176.02 207.919 176.283C207.607 176.11 207.331 175.877 207.107 175.599C206.967 175.432 206.849 175.248 206.753 175.052C206.75 175.049 206.75 175.045 206.747 175.039C206.743 175.031 206.74 175.023 206.737 175.015C206.55 174.625 206.454 174.197 206.457 173.764V143.816H193.92C193.55 143.818 193.183 143.746 192.841 143.605C192.409 143.433 192.026 143.158 191.723 142.805C191.42 142.452 191.207 142.03 191.102 141.577V141.573C190.946 140.914 191.029 140.221 191.335 139.618C191.332 139.615 191.332 139.615 191.335 139.615C191.465 139.351 191.637 139.111 191.845 138.904V138.9C191.845 138.897 191.845 138.897 191.848 138.894C192.118 138.617 192.44 138.398 192.796 138.247C193.152 138.097 193.534 138.02 193.92 138.02H217.835C218.602 138.02 219.337 138.325 219.879 138.868C220.421 139.411 220.726 140.148 220.726 140.916Z" fill="#555555"/>
<path d="M236.65 84.8137C235.48 84.5945 234.279 84.6083 233.114 84.8543C231.949 85.1004 230.844 85.5739 229.862 86.2478C228.88 86.9217 228.04 87.7828 227.39 88.7819C226.74 89.781 226.293 90.8986 226.074 92.0708V92.0708C225.688 94.1416 226.032 96.2824 227.048 98.1269C228.064 99.9714 229.688 101.405 231.643 102.182L228.917 116.781L234.605 117.847L240.632 85.5595L236.65 84.8137Z" fill="#555555"/>
<path d="M228.463 74.0786C231.039 74.0786 233.126 71.987 233.126 69.407C233.126 66.8269 231.039 64.7354 228.463 64.7354C225.888 64.7354 223.8 66.8269 223.8 69.407C223.8 71.987 225.888 74.0786 228.463 74.0786Z" fill="#3A3A3A"/>
<path d="M282.822 82.8204C280.798 83.4966 278.635 83.6118 276.503 83.6487C270.297 83.7562 263.935 83.2115 258.287 80.6337C252.64 78.0558 247.777 73.1569 246.522 67.0679C245.981 64.4435 246.045 61.5204 244.394 59.4118C242.435 56.9093 238.497 56.5682 235.755 58.17C233.012 59.7718 231.411 62.889 230.945 66.035L229.84 67.8344C229.866 68.9929 231.117 69.7633 232.269 69.872C233.421 69.9806 234.578 69.6627 235.732 69.7487C238.26 69.937 240.321 72.1032 241.057 74.533C241.794 76.9628 241.439 79.591 240.809 82.0506C240.178 84.5102 239.278 86.9096 238.918 89.4234C238.558 91.9371 238.802 94.6652 240.278 96.7295C241.386 98.2788 243.075 99.3061 244.791 100.128C248.947 102.117 253.5 103.136 258.106 103.107C262.711 103.079 267.251 102.004 271.382 99.9635C275.513 97.9232 279.129 94.9705 281.956 91.3278C284.784 87.6851 286.749 83.4472 287.705 78.9333C286.739 80.8381 284.845 82.1441 282.822 82.8204Z" fill="#3A3A3A"/>
<path d="M193.294 181.606H183.797C183.275 181.606 182.77 181.417 182.376 181.073C181.981 180.73 181.724 180.256 181.65 179.738C181.064 175.414 181.064 171.031 181.65 166.708C181.723 166.196 181.975 165.727 182.362 165.384C182.749 165.042 183.244 164.849 183.761 164.84C186.749 163.498 189.967 163.498 193.327 164.84C193.64 164.844 193.948 164.917 194.23 165.053C194.512 165.189 194.761 165.385 194.959 165.628C195.166 165.881 195.313 166.176 195.392 166.493C195.47 166.81 195.477 167.14 195.412 167.46C194.649 171.264 194.649 175.182 195.412 178.985C195.477 179.305 195.47 179.636 195.392 179.953C195.313 180.27 195.166 180.565 194.959 180.818C194.757 181.065 194.503 181.264 194.216 181.4C193.928 181.536 193.613 181.607 193.294 181.606Z" fill="#FF5B00"/>
<path d="M192.3 169.807H184.306C184.174 169.807 184.046 169.755 183.953 169.661C183.859 169.567 183.806 169.44 183.806 169.307C183.806 169.174 183.859 169.047 183.953 168.953C184.046 168.859 184.174 168.806 184.306 168.806H192.3C192.432 168.806 192.559 168.859 192.653 168.953C192.747 169.047 192.799 169.174 192.799 169.307C192.799 169.44 192.747 169.567 192.653 169.661C192.559 169.755 192.432 169.807 192.3 169.807Z" fill="white"/>
<path d="M192.3 173.812H184.306C184.174 173.812 184.046 173.759 183.953 173.665C183.859 173.571 183.806 173.444 183.806 173.311C183.806 173.178 183.859 173.051 183.953 172.957C184.046 172.863 184.174 172.811 184.306 172.811H192.3C192.432 172.811 192.559 172.863 192.653 172.957C192.747 173.051 192.799 173.178 192.799 173.311C192.799 173.444 192.747 173.571 192.653 173.665C192.559 173.759 192.432 173.812 192.3 173.812Z" fill="white"/>
<path d="M192.3 177.816H184.306C184.174 177.816 184.046 177.763 183.953 177.669C183.859 177.576 183.806 177.448 183.806 177.315C183.806 177.183 183.859 177.055 183.953 176.962C184.046 176.868 184.174 176.815 184.306 176.815H192.3C192.432 176.815 192.559 176.868 192.653 176.962C192.747 177.055 192.799 177.183 192.799 177.315C192.799 177.448 192.747 177.576 192.653 177.669C192.559 177.763 192.432 177.816 192.3 177.816Z" fill="white"/>
<path d="M79.8037 75.5466V75.5457C79.8138 75.4645 79.8552 75.3905 79.919 75.3394C79.9827 75.2883 80.0639 75.2642 80.1452 75.2723L131.532 75.4094C131.613 75.4018 131.694 75.4263 131.758 75.4775C131.821 75.5288 131.862 75.6027 131.872 75.6837V75.6847C131.861 75.7659 131.82 75.8399 131.756 75.8909C131.693 75.942 131.611 75.9661 131.53 75.9581L80.1429 75.8209C80.0618 75.8285 79.981 75.804 79.9176 75.7528C79.8543 75.7016 79.8134 75.6276 79.8037 75.5466Z" fill="#555555"/>
<path d="M93.3927 107.254L91.2107 109.658C91.1096 109.743 90.9861 109.797 90.855 109.814C90.7239 109.831 90.5907 109.81 90.4712 109.754C90.1093 109.626 89.7873 109.404 89.5373 109.113C87.978 107.34 86.2274 105.745 84.3175 104.358C84.0038 104.137 83.7535 103.836 83.5916 103.488C83.526 103.375 83.4927 103.247 83.4956 103.117C83.4985 102.987 83.5374 102.86 83.608 102.751C83.6297 101.436 84.3694 100.621 85.8067 100.328C86.0587 100.066 86.628 100.165 87.1383 100.564C89.2373 102.205 91.2099 104.002 93.0395 105.939C93.4887 106.415 93.6406 106.98 93.3927 107.254Z" fill="#FF5B00"/>
<path d="M87.7847 102.078L85.9482 104.102C85.8848 104.172 85.7319 104.136 85.6067 104.022C85.4815 103.908 85.4314 103.759 85.4948 103.689L87.3313 101.665C87.3947 101.595 87.5475 101.631 87.6727 101.745C87.798 101.859 87.8481 102.008 87.7847 102.078Z" fill="white"/>
<path d="M89.5982 103.73L87.7617 105.754C87.6983 105.824 87.5455 105.788 87.4203 105.674C87.295 105.56 87.2449 105.411 87.3084 105.341L89.1448 103.317C89.2082 103.247 89.3611 103.283 89.4863 103.397C89.6115 103.511 89.6616 103.66 89.5982 103.73Z" fill="white"/>
<path d="M91.4118 105.382L89.5753 107.406C89.5119 107.476 89.359 107.44 89.2338 107.326C89.1086 107.212 89.0585 107.063 89.1219 106.993L90.9584 104.969C91.0218 104.899 91.1746 104.935 91.2999 105.049C91.4251 105.163 91.4752 105.312 91.4118 105.382Z" fill="white"/>
<path d="M196.077 169.443C196.537 169.171 196.931 168.802 197.233 168.36C197.534 167.919 197.736 167.417 197.823 166.889C197.91 166.362 197.88 165.822 197.736 165.307C197.592 164.792 197.337 164.315 196.989 163.909L203.511 152.672L196.779 153.052L191.618 163.665C190.976 164.296 190.588 165.14 190.527 166.038C190.466 166.937 190.736 167.826 191.285 168.539C191.835 169.251 192.627 169.736 193.51 169.903C194.393 170.07 195.306 169.906 196.077 169.443V169.443Z" fill="#F4325E"/>
<path d="M198.709 161.182L192.682 156.479L203.634 135.217L199.53 108.14C199.327 106.802 199.421 105.435 199.805 104.137C200.189 102.839 200.853 101.642 201.75 100.63C202.648 99.6178 203.757 98.8162 204.998 98.282C206.24 97.7478 207.584 97.4939 208.934 97.5384C211.373 97.6216 213.68 98.6708 215.348 100.456C217.016 102.241 217.909 104.616 217.831 107.059L216.817 137.89L198.709 161.182Z" fill="#F6F6F6"/>
<path d="M146.442 94.1854H126.091C125.545 94.1848 125.023 93.9674 124.637 93.5811C124.251 93.1947 124.034 92.6708 124.034 92.1244V65.1278C124.034 64.5814 124.251 64.0576 124.637 63.6712C125.023 63.2848 125.545 63.0675 126.091 63.0669H146.442C146.987 63.0675 147.51 63.2848 147.896 63.6712C148.282 64.0576 148.499 64.5814 148.499 65.1278V92.1244C148.499 92.6708 148.282 93.1947 147.896 93.5811C147.51 93.9674 146.987 94.1848 146.442 94.1854Z" fill="#F6F6F6"/>
<path d="M145.011 92.4675H127.521C127.037 92.467 126.573 92.274 126.23 91.931C125.888 91.5879 125.695 91.1228 125.695 90.6376V66.6143C125.695 66.1292 125.888 65.664 126.23 65.321C126.573 64.9779 127.037 64.785 127.521 64.7844H145.011C145.496 64.785 145.96 64.9779 146.302 65.321C146.645 65.664 146.837 66.1292 146.838 66.6143V90.6376C146.837 91.1228 146.645 91.5879 146.302 91.931C145.96 92.274 145.496 92.467 145.011 92.4675Z" fill="white"/>
<path d="M143.267 69.3499H129.266C129.206 69.3501 129.147 69.3384 129.091 69.3155C129.036 69.2926 128.985 69.2589 128.942 69.2164C128.9 69.1739 128.866 69.1234 128.843 69.0678C128.82 69.0123 128.808 68.9527 128.808 68.8925C128.808 68.8323 128.82 68.7727 128.843 68.7172C128.866 68.6616 128.9 68.6111 128.942 68.5686C128.985 68.5261 129.036 68.4924 129.091 68.4695C129.147 68.4466 129.206 68.4349 129.266 68.4351H143.267C143.327 68.4349 143.386 68.4466 143.442 68.4695C143.497 68.4924 143.548 68.5261 143.59 68.5686C143.633 68.6111 143.667 68.6616 143.69 68.7172C143.713 68.7727 143.725 68.8323 143.725 68.8925C143.725 68.9527 143.713 69.0123 143.69 69.0678C143.667 69.1234 143.633 69.1739 143.59 69.2164C143.548 69.2589 143.497 69.2926 143.442 69.3155C143.386 69.3384 143.327 69.3501 143.267 69.3499Z" fill="#FF5B00"/>
<path d="M143.267 71.1574H129.266C129.145 71.1574 129.029 71.1092 128.943 71.0234C128.858 70.9376 128.81 70.8212 128.81 70.6999C128.81 70.5786 128.858 70.4622 128.943 70.3764C129.029 70.2906 129.145 70.2424 129.266 70.2424H143.267C143.327 70.2424 143.386 70.2543 143.441 70.2773C143.497 70.3002 143.547 70.3339 143.59 70.3764C143.632 70.4189 143.666 70.4693 143.689 70.5248C143.711 70.5803 143.723 70.6398 143.723 70.6999C143.723 70.76 143.711 70.8195 143.689 70.875C143.666 70.9305 143.632 70.9809 143.59 71.0234C143.547 71.0659 143.497 71.0996 143.441 71.1225C143.386 71.1455 143.327 71.1574 143.267 71.1574Z" fill="#FF5B00"/>
<path d="M135.335 72.965H129.266C129.145 72.965 129.029 72.9168 128.943 72.831C128.858 72.7452 128.81 72.6288 128.81 72.5075C128.81 72.3862 128.858 72.2698 128.943 72.184C129.029 72.0982 129.145 72.05 129.266 72.05H135.335C135.456 72.05 135.572 72.0982 135.658 72.184C135.744 72.2698 135.792 72.3862 135.792 72.5075C135.792 72.6288 135.744 72.7452 135.658 72.831C135.572 72.9168 135.456 72.965 135.335 72.965Z" fill="#FF5B00"/>
<path d="M143.267 76.7508H129.266C129.206 76.751 129.147 76.7393 129.091 76.7164C129.036 76.6934 128.985 76.6598 128.942 76.6173C128.9 76.5748 128.866 76.5243 128.843 76.4687C128.82 76.4131 128.808 76.3536 128.808 76.2934C128.808 76.2332 128.82 76.1736 128.843 76.118C128.866 76.0625 128.9 76.012 128.942 75.9695C128.985 75.927 129.036 75.8933 129.091 75.8704C129.147 75.8475 129.206 75.8358 129.266 75.8359H143.267C143.327 75.8358 143.386 75.8475 143.442 75.8704C143.497 75.8933 143.548 75.927 143.59 75.9695C143.633 76.012 143.667 76.0625 143.69 76.118C143.713 76.1736 143.725 76.2332 143.725 76.2934C143.725 76.3536 143.713 76.4131 143.69 76.4687C143.667 76.5243 143.633 76.5748 143.59 76.6173C143.548 76.6598 143.497 76.6934 143.442 76.7164C143.386 76.7393 143.327 76.751 143.267 76.7508Z" fill="#F6F6F6"/>
<path d="M143.267 78.5585H129.266C129.206 78.5586 129.147 78.5469 129.091 78.524C129.035 78.5011 128.985 78.4674 128.942 78.4249C128.9 78.3824 128.866 78.332 128.843 78.2764C128.82 78.2208 128.808 78.1612 128.808 78.101C128.808 78.0408 128.82 77.9812 128.843 77.9257C128.866 77.8701 128.9 77.8196 128.942 77.7771C128.985 77.7346 129.035 77.7009 129.091 77.678C129.147 77.6551 129.206 77.6434 129.266 77.6436H143.267C143.327 77.6434 143.386 77.6551 143.442 77.678C143.497 77.7009 143.548 77.7346 143.59 77.7771C143.633 77.8196 143.667 77.8701 143.69 77.9257C143.713 77.9812 143.725 78.0408 143.725 78.101C143.725 78.1612 143.713 78.2208 143.69 78.2764C143.667 78.332 143.633 78.3824 143.59 78.4249C143.548 78.4674 143.497 78.5011 143.442 78.524C143.386 78.5469 143.327 78.5586 143.267 78.5585Z" fill="#F6F6F6"/>
<path d="M135.335 80.3659H129.266C129.145 80.3659 129.029 80.3177 128.943 80.2319C128.858 80.1461 128.81 80.0297 128.81 79.9084C128.81 79.7871 128.858 79.6707 128.943 79.5849C129.029 79.4991 129.145 79.4509 129.266 79.4509H135.335C135.456 79.4509 135.572 79.4991 135.658 79.5849C135.744 79.6707 135.792 79.7871 135.792 79.9084C135.792 80.0297 135.744 80.1461 135.658 80.2319C135.572 80.3177 135.456 80.3659 135.335 80.3659Z" fill="#F6F6F6"/>
<path d="M143.267 84.1517H129.266C129.145 84.1517 129.029 84.1035 128.943 84.0177C128.858 83.9319 128.81 83.8156 128.81 83.6943C128.81 83.5729 128.858 83.4566 128.943 83.3708C129.029 83.285 129.145 83.2368 129.266 83.2368H143.267C143.388 83.2368 143.504 83.285 143.59 83.3708C143.675 83.4566 143.723 83.5729 143.723 83.6943C143.723 83.8156 143.675 83.9319 143.59 84.0177C143.504 84.1035 143.388 84.1517 143.267 84.1517Z" fill="#F6F6F6"/>
<path d="M143.267 85.9594H129.266C129.145 85.9594 129.029 85.9112 128.943 85.8254C128.858 85.7396 128.81 85.6232 128.81 85.5019C128.81 85.3806 128.858 85.2642 128.943 85.1784C129.029 85.0926 129.145 85.0444 129.266 85.0444H143.267C143.388 85.0444 143.504 85.0926 143.59 85.1784C143.675 85.2642 143.723 85.3806 143.723 85.5019C143.723 85.6232 143.675 85.7396 143.59 85.8254C143.504 85.9112 143.388 85.9594 143.267 85.9594Z" fill="#F6F6F6"/>
<path d="M135.335 87.767H129.266C129.145 87.767 129.029 87.7188 128.943 87.633C128.858 87.5472 128.81 87.4308 128.81 87.3095C128.81 87.1882 128.858 87.0718 128.943 86.986C129.029 86.9002 129.145 86.8521 129.266 86.8521H135.335C135.456 86.8521 135.572 86.9002 135.658 86.986C135.744 87.0718 135.792 87.1882 135.792 87.3095C135.792 87.4308 135.744 87.5472 135.658 87.633C135.572 87.7188 135.456 87.767 135.335 87.767Z" fill="#F6F6F6"/>
<path d="M77.1888 58.2147L131.785 11.4308H131.871V12.1175H132.038L77.6348 58.7366L77.1888 58.2147Z" fill="#3A3A3A"/>
<path d="M114.883 111.942H89.7799C89.3877 111.943 89.0117 112.099 88.7343 112.377C88.457 112.655 88.301 113.031 88.3006 113.424V129.082C88.301 129.475 88.457 129.852 88.7343 130.129C89.0117 130.407 89.3877 130.564 89.7799 130.564H114.883C115.275 130.564 115.651 130.407 115.929 130.129C116.206 129.852 116.362 129.475 116.362 129.082V113.424C116.362 113.031 116.206 112.655 115.929 112.377C115.651 112.099 115.275 111.943 114.883 111.942Z" fill="white"/>
<path d="M114.883 111.942H89.7799C89.3877 111.943 89.0117 112.099 88.7343 112.377C88.457 112.655 88.301 113.031 88.3006 113.424V129.082C88.301 129.475 88.457 129.852 88.7343 130.129C89.0117 130.407 89.3877 130.564 89.7799 130.564H114.883C115.275 130.564 115.651 130.407 115.929 130.129C116.206 129.852 116.362 129.475 116.362 129.082V113.424C116.362 113.031 116.206 112.655 115.929 112.377C115.651 112.099 115.275 111.943 114.883 111.942ZM115.369 123.189C115.363 124.783 114.733 126.312 113.615 127.446C112.498 128.581 110.981 129.231 109.39 129.258C106.843 129.291 110.799 129.304 107.727 129.304C100.702 129.304 93.3772 129.237 90.6441 129.193C90.2845 129.186 89.9421 129.038 89.6899 128.781C89.4377 128.524 89.2958 128.179 89.2944 127.818V113.425C89.2946 113.296 89.3457 113.173 89.4367 113.081C89.5276 112.99 89.651 112.938 89.7798 112.938H114.882C115.011 112.938 115.134 112.989 115.225 113.08C115.317 113.171 115.368 113.295 115.369 113.424V123.189Z" fill="#A2A2A2"/>
<path d="M111.572 121.936H92.4455C92.2763 121.935 92.1113 121.883 91.973 121.785C91.8347 121.687 91.7298 121.549 91.6728 121.39L88.7189 113.087C88.6748 112.963 88.6611 112.831 88.6788 112.7C88.6966 112.57 88.7453 112.446 88.8209 112.338C88.8965 112.231 88.9968 112.143 89.1133 112.082C89.2298 112.021 89.3592 111.99 89.4905 111.989L115.142 111.944H115.143C115.278 111.944 115.412 111.978 115.532 112.042C115.651 112.107 115.753 112.2 115.828 112.313C115.902 112.427 115.948 112.557 115.96 112.693C115.972 112.828 115.95 112.964 115.897 113.089L115.852 113.07L115.897 113.089L112.325 121.438C112.262 121.585 112.157 121.712 112.023 121.8C111.889 121.889 111.732 121.936 111.572 121.936Z" fill="#A2A2A2"/>
<path d="M102.317 123.983C103.446 123.983 104.361 123.066 104.361 121.936C104.361 120.805 103.446 119.888 102.317 119.888C101.188 119.888 100.273 120.805 100.273 121.936C100.273 123.066 101.188 123.983 102.317 123.983Z" fill="#555555"/>
<path d="M47.3404 204.353C46.9407 207.303 44.9389 209.966 42.3643 211.704C41.7508 212.12 41.1035 212.482 40.4291 212.789C39.6877 213.124 38.9229 213.405 38.1409 213.63C34.7102 214.634 31.0031 214.677 27.3959 214.697C23.7487 214.721 20.1027 214.744 16.4577 214.768C13.5833 214.784 10.6156 214.784 7.96097 213.68C7.92127 213.665 7.88236 213.648 7.84439 213.63C5.23641 212.502 3.0148 210.022 3.07809 207.186C3.10353 206.187 3.38573 205.211 3.89745 204.353C4.23618 203.777 4.64326 203.243 5.10984 202.765C6.55539 201.263 8.5605 200.085 10.439 199.138C13.5366 197.579 17.0373 195.557 17.9432 192.354C18.0388 192.017 18.1035 191.672 18.1364 191.323C18.3496 189.12 17.2804 187.095 15.9181 185.283C15.7849 185.103 15.645 184.923 15.5018 184.742C15.1954 184.359 14.8789 183.982 14.5658 183.621C14.4326 183.468 14.2994 183.311 14.1628 183.154C12.9038 181.692 11.6348 180.131 10.972 178.386C10.6866 177.655 10.5278 176.881 10.5023 176.097C10.429 173.264 13.5899 170.411 15.9814 171.749C17.1538 171.635 18.3263 171.518 19.4987 171.398C20.9376 171.255 22.3698 171.111 23.8053 170.964H23.8087C24.1318 170.938 24.4482 170.904 24.7646 170.871C27.7523 170.574 30.7377 170.275 33.721 169.973C35.0466 169.843 36.6054 169.793 37.4681 170.814C38.4074 171.929 37.9211 173.691 36.9918 174.815C36.0625 175.936 34.7735 176.731 33.9009 177.892C32.7717 179.393 32.5086 181.292 32.8317 183.154C32.9252 183.695 33.0657 184.226 33.2514 184.742C33.5775 185.664 34.0292 186.537 34.5936 187.335C36.5521 190.085 39.4532 191.98 42.0279 194.159C44.6059 196.341 47.0173 199.111 47.3704 202.468C47.3804 202.565 47.3904 202.665 47.3937 202.765C47.4311 203.295 47.4133 203.827 47.3404 204.353Z" fill="#F6F6F6"/>
<path d="M26.3939 173.799C23.795 171.227 21.5812 168.291 19.8215 165.084C18.0671 161.893 16.7713 158.469 15.9724 154.915C15.1625 151.308 14.8943 147.601 15.1765 143.914C15.7619 136.407 18.5309 129.236 23.1412 123.288C23.4227 122.926 23.711 122.57 24.006 122.219C24.3349 121.827 24.8937 122.392 24.5671 122.782C19.8625 128.433 16.9151 135.342 16.0896 142.655C15.4925 148.242 16.1592 153.893 18.0402 159.187C19.9212 164.482 22.9682 169.284 26.9551 173.237C27.3193 173.596 26.7581 174.159 26.3939 173.799V173.799Z" fill="#F6F6F6"/>
<path d="M22.8213 123.963C23.1426 123.843 23.4572 123.705 23.7638 123.552C23.7793 123.575 23.7944 123.6 23.8099 123.624L22.8213 123.963Z" fill="#F6F6F6"/>
<path d="M28.948 116.951C28.8181 117.679 28.5836 118.385 28.2519 119.046C27.3358 120.889 25.8766 122.406 24.0718 123.391C23.9719 123.444 23.8686 123.501 23.7654 123.551C23.6421 123.357 23.5156 123.164 23.3957 122.97C22.5455 121.702 21.917 120.299 21.5371 118.819C21.1507 117.081 21.3606 115.129 22.473 113.737C23.5822 112.346 25.7005 111.722 27.236 112.623C27.6793 112.888 28.0555 113.252 28.3352 113.687C28.1819 113.877 28.0287 114.064 27.8755 114.254C27.862 114.272 27.8476 114.289 27.8322 114.304C27.699 114.471 27.5624 114.635 27.4292 114.802C26.873 115.486 26.3201 116.173 25.7638 116.854C26.5478 116.998 27.3456 117.053 28.142 117.017C28.2053 117.014 28.2719 117.011 28.3352 117.007C28.5383 116.994 28.7448 116.977 28.948 116.951Z" fill="#F6F6F6"/>
<path d="M17.7134 130.635L17.5002 133.418L17.4436 134.172C17.3837 134.142 17.3204 134.112 17.2604 134.082C15.1887 133.052 13.3602 131.59 11.8973 129.796C10.4343 128.001 9.37054 125.914 8.777 123.674C8.57857 122.897 8.43938 122.107 8.36066 121.309C9.43982 121.142 10.5223 120.972 11.6015 120.805C10.7278 119.666 9.63336 118.716 8.38397 118.012C8.66887 115.227 9.67335 112.564 11.2984 110.287C11.5782 114.952 16.4544 117.918 18.2397 122.233C18.7874 123.583 19.0245 125.04 18.9334 126.494C18.8423 127.949 18.4253 129.364 17.7134 130.635Z" fill="#F6F6F6"/>
<path d="M16.7874 155.078C16.5276 155.091 16.2678 155.098 16.0114 155.094C13.7948 155.08 11.6045 154.613 9.57472 153.72C7.54492 152.828 5.71842 151.53 4.20721 149.905C2.98389 148.563 2.00029 147.02 1.29947 145.344C1.32278 145.341 1.34277 145.337 1.36608 145.334C2.44525 145.167 3.52774 144.997 4.60691 144.83C3.46076 143.334 1.93745 142.171 0.193663 141.46C-0.0421715 139.952 -0.0601207 138.418 0.14037 136.905C2.57848 140.886 8.27739 141.206 11.8779 144.169C13.5951 145.603 14.7657 147.587 15.192 149.785C15.2983 150.329 15.3552 150.88 15.3619 151.434C15.3652 151.567 15.3652 151.697 15.3619 151.828L15.4418 152.008L16.7874 155.078Z" fill="#F6F6F6"/>
<path d="M27.4991 159.686C26.8097 160.533 26.1202 161.388 25.4308 162.235C26.2784 162.391 27.1419 162.443 28.0021 162.389C27.2383 165.129 25.7719 167.622 23.7487 169.62C23.5589 169.806 23.3624 169.99 23.1625 170.164C23.1225 170.2 23.0792 170.237 23.0393 170.274L22.8594 169.763L22.8561 169.76L21.8369 166.933C20.5438 165.631 19.6483 163.986 19.2555 162.192V162.185C19.0167 161.135 18.9614 160.051 19.0923 158.982C19.6619 154.347 23.5722 150.179 22.5996 145.611C24.7426 147.35 26.4053 149.609 27.4292 152.174C26.873 152.859 26.3201 153.546 25.7638 154.227C26.5478 154.371 27.3456 154.426 28.142 154.39C28.4209 155.52 28.5729 156.677 28.595 157.84C28.5983 158.007 28.5983 158.171 28.595 158.338C28.2452 158.771 27.8922 159.202 27.5424 159.636C27.529 159.653 27.5145 159.67 27.4991 159.686Z" fill="#F6F6F6"/>
<path d="M149.44 22.7764H129.089C128.543 22.7757 128.02 22.5584 127.635 22.172C127.249 21.7857 127.032 21.2618 127.031 20.7154V2.06095C127.032 1.51455 127.249 0.990694 127.635 0.604324C128.02 0.217953 128.543 0.000619997 129.089 0H149.44C149.985 0.000617348 150.508 0.217953 150.894 0.604324C151.279 0.990694 151.496 1.51454 151.497 2.06095V20.7154C151.496 21.2618 151.279 21.7857 150.894 22.172C150.508 22.5584 149.985 22.7757 149.44 22.7764Z" fill="#F6F6F6"/>
<path d="M148.009 21.0586H130.519C130.035 21.0581 129.571 20.8651 129.228 20.522C128.886 20.179 128.693 19.7139 128.693 19.2287V3.54755C128.693 3.0624 128.886 2.59727 129.228 2.25422C129.571 1.91117 130.035 1.7182 130.519 1.71765H148.009C148.493 1.7182 148.958 1.91117 149.3 2.25422C149.642 2.59727 149.835 3.0624 149.836 3.54755V19.2287C149.835 19.7139 149.642 20.179 149.3 20.522C148.958 20.8651 148.493 21.0581 148.009 21.0586Z" fill="white"/>
<path d="M146.264 6.28305H132.264C132.204 6.28321 132.144 6.2715 132.089 6.24858C132.033 6.22567 131.983 6.192 131.94 6.14951C131.898 6.10701 131.864 6.05653 131.841 6.00095C131.818 5.94537 131.806 5.88578 131.806 5.82561C131.806 5.76543 131.818 5.70584 131.841 5.65026C131.864 5.59468 131.898 5.5442 131.94 5.50171C131.983 5.45922 132.033 5.42555 132.089 5.40263C132.144 5.37972 132.204 5.368 132.264 5.36817H146.264C146.324 5.368 146.384 5.37972 146.439 5.40263C146.495 5.42555 146.545 5.45922 146.588 5.50171C146.631 5.5442 146.664 5.59468 146.687 5.65026C146.71 5.70584 146.722 5.76543 146.722 5.82561C146.722 5.88578 146.71 5.94537 146.687 6.00095C146.664 6.05653 146.631 6.10701 146.588 6.14951C146.545 6.192 146.495 6.22567 146.439 6.24858C146.384 6.2715 146.324 6.28321 146.264 6.28305Z" fill="#FF5B00"/>
<path d="M146.264 8.09071H132.264C132.143 8.09071 132.027 8.04251 131.941 7.95672C131.855 7.87093 131.807 7.75457 131.807 7.63325C131.807 7.51192 131.855 7.39556 131.941 7.30977C132.027 7.22398 132.143 7.17578 132.264 7.17578H146.264C146.385 7.17578 146.502 7.22398 146.587 7.30977C146.673 7.39556 146.721 7.51192 146.721 7.63325C146.721 7.75457 146.673 7.87093 146.587 7.95672C146.502 8.04251 146.385 8.09071 146.264 8.09071Z" fill="#FF5B00"/>
<path d="M138.333 9.89821H132.264C132.143 9.89821 132.027 9.85001 131.941 9.76422C131.855 9.67843 131.807 9.56207 131.807 9.44074C131.807 9.31941 131.855 9.20306 131.941 9.11727C132.027 9.03148 132.143 8.98328 132.264 8.98328H138.333C138.454 8.98328 138.57 9.03148 138.656 9.11727C138.741 9.20306 138.789 9.31941 138.789 9.44074C138.789 9.56207 138.741 9.67843 138.656 9.76422C138.57 9.85001 138.454 9.89821 138.333 9.89821Z" fill="#FF5B00"/>
<path d="M146.264 13.6841H132.264C132.204 13.6842 132.144 13.6725 132.089 13.6496C132.033 13.6267 131.983 13.593 131.94 13.5505C131.898 13.508 131.864 13.4575 131.841 13.4019C131.818 13.3464 131.806 13.2868 131.806 13.2266C131.806 13.1664 131.818 13.1068 131.841 13.0513C131.864 12.9957 131.898 12.9452 131.94 12.9027C131.983 12.8602 132.033 12.8265 132.089 12.8036C132.144 12.7807 132.204 12.769 132.264 12.7692H146.264C146.324 12.769 146.384 12.7807 146.439 12.8036C146.495 12.8265 146.545 12.8602 146.588 12.9027C146.631 12.9452 146.664 12.9957 146.687 13.0513C146.71 13.1068 146.722 13.1664 146.722 13.2266C146.722 13.2868 146.71 13.3464 146.687 13.4019C146.664 13.4575 146.631 13.508 146.588 13.5505C146.545 13.593 146.495 13.6267 146.439 13.6496C146.384 13.6725 146.324 13.6842 146.264 13.6841Z" fill="#F6F6F6"/>
<path d="M146.264 15.4916H132.264C132.204 15.4917 132.144 15.48 132.089 15.4571C132.033 15.4342 131.983 15.4005 131.94 15.358C131.898 15.3155 131.864 15.2651 131.841 15.2095C131.818 15.1539 131.806 15.0943 131.806 15.0341C131.806 14.9739 131.818 14.9144 131.841 14.8588C131.864 14.8032 131.898 14.7527 131.94 14.7102C131.983 14.6677 132.033 14.634 132.089 14.6111C132.144 14.5882 132.204 14.5765 132.264 14.5767H146.264C146.324 14.5765 146.384 14.5882 146.439 14.6111C146.495 14.634 146.546 14.6677 146.588 14.7102C146.631 14.7527 146.664 14.8032 146.687 14.8588C146.71 14.9144 146.722 14.9739 146.722 15.0341C146.722 15.0943 146.71 15.1539 146.687 15.2095C146.664 15.2651 146.631 15.3155 146.588 15.358C146.546 15.4005 146.495 15.4342 146.439 15.4571C146.384 15.48 146.324 15.4917 146.264 15.4916Z" fill="#F6F6F6"/>
<path d="M138.333 17.2992H132.264C132.143 17.2992 132.027 17.251 131.941 17.1652C131.855 17.0794 131.807 16.9631 131.807 16.8417C131.807 16.7204 131.855 16.6041 131.941 16.5183C132.027 16.4325 132.143 16.3843 132.264 16.3843H138.333C138.454 16.3843 138.57 16.4325 138.656 16.5183C138.741 16.6041 138.789 16.7204 138.789 16.8417C138.789 16.9631 138.741 17.0794 138.656 17.1652C138.57 17.251 138.454 17.2992 138.333 17.2992Z" fill="#F6F6F6"/>
</g>
<defs>
<clipPath id="clip0_311_1324">
<rect width="288" height="215" fill="white"/>
</clipPath>
</defs>
</svg>
