<svg width="288" height="215" viewBox="0 0 288 215" fill="none" xmlns="http://www.w3.org/2000/svg">
<g clip-path="url(#clip0_314_1525)">
<path d="M108.535 41.9763C106.341 33.3703 124.032 25.9906 128.678 32.921C129.324 31.9357 131.711 31.3372 132.806 31.6394C133.902 31.9417 134.823 32.6973 135.722 33.4288C136.958 34.4503 138.238 35.5082 138.997 36.9771C139.761 38.44 139.878 40.4348 138.851 41.7043C138.036 42.7138 135.632 43.3666 134.407 43.6326C133.554 43.82 132.835 43.9711 132.217 44.0799C131.666 43.2155 131.385 42.1455 131.486 41.0998C130.655 41.6922 130.093 42.7077 130.004 43.7837C129.987 44.0074 136.907 71.4091 136.907 71.4091C136.194 71.8624 135.312 72.2856 134.295 72.6724C132.571 69.8736 131.155 66.5731 130.223 63.1214C130.009 65.2553 130.043 67.5705 130.301 69.922C130.436 71.1733 130.638 72.4307 130.897 73.688C122.673 75.5982 110.304 74.9695 104.923 66.8451C104.922 66.8115 104.921 66.7779 104.92 66.7442C104.882 65.224 102.954 64.8462 102.439 66.2621C102.308 66.6206 102.188 66.9308 102.081 67.1776C100.513 61.1447 102.541 54.1629 108.535 41.9763V41.9763Z" fill="#3A3A3A"/>
<path d="M220.316 110.221C218.37 112.704 214.922 113.02 212.614 110.926C212.391 110.723 212.183 110.502 211.992 110.263L186.022 119.115L181.981 111.986L212.897 101.716C215.323 99.7898 218.74 100.345 220.53 102.955C222.027 105.139 221.939 108.143 220.316 110.221H220.316Z" fill="#FFF2EB"/>
<path d="M128.344 88.1012C128.344 88.1012 139.845 74.1804 144.855 80.0938C149.864 86.0072 165.494 111.92 165.494 111.92L201.979 103.637L205.507 113.998L164.08 128.445C160.966 129.531 157.553 128.405 155.54 125.627L128.344 88.1012V88.1012Z" fill="#FF5B00"/>
<path d="M153.323 215H96.28L96.2281 214.521L96.1947 214.201L95.7048 209.728L95.0108 203.358L94.7436 200.91C94.7251 200.786 94.7065 200.667 94.6917 200.543C94.4579 198.949 94.3243 197.348 94.276 195.75C94.2055 193.554 94.2983 191.361 94.5173 189.197V189.185C94.636 188.015 94.7882 186.856 94.9774 185.71C95.2149 184.237 95.5007 182.787 95.831 181.369C96.2095 179.724 96.64 178.122 97.1113 176.577C97.6531 174.768 98.2469 173.034 98.8592 171.397C98.926 171.221 98.9928 171.045 99.0559 170.874L99.0596 170.87C102.288 162.399 105.955 156.612 105.955 156.612H147.511C147.511 156.612 149.434 165.69 150.387 173.186C150.54 174.372 150.666 175.514 150.759 176.577C150.926 178.538 150.974 180.223 150.829 181.369C150.74 182.08 150.577 182.583 150.324 182.815C148.038 184.916 150.655 189.372 150.655 189.372C150.655 189.372 152.614 192.595 150.907 194.409C150.569 194.768 150.376 195.231 150.283 195.75C150.135 196.609 150.265 197.607 150.469 198.49C150.673 199.377 150.955 200.147 151.111 200.543C151.182 200.719 151.226 200.818 151.226 200.818L151.516 203.282L151.798 205.655L152.276 209.728L152.421 210.447L153.167 214.201L153.23 214.521L153.323 215H153.323Z" fill="#3A3A3A"/>
<path d="M124.509 69.0557L107.068 70.7273L103.854 81.4926L100.35 82.0384C94.3641 82.9712 90.8013 89.7279 93.1273 95.7367L96.2097 103.7C96.2097 103.7 91.6821 118.739 97.2428 125.058L99.6091 152.89L94.2712 171.237L156.667 173.404L146.038 150.391L145.723 136.101C145.723 136.101 152.515 110.273 146.218 102.058L143.761 78.6912L130.962 76.6251L124.509 69.0557H124.509Z" fill="#FF5B00"/>
<path d="M136.317 55.2444C138.115 46.9022 133.288 38.5716 125.536 36.6375C117.784 34.7034 110.043 39.8981 108.245 48.2403C106.448 56.5825 111.275 64.9131 119.027 66.8473C126.779 68.7814 134.52 63.5866 136.317 55.2444Z" fill="#FFF2EB"/>
<path d="M100.671 43.1853C98.4773 34.5793 116.168 27.1996 120.814 34.1299C121.46 33.1447 123.847 32.5462 124.942 32.8484C126.038 33.1507 126.959 33.9063 127.858 34.6377C129.094 35.6593 130.374 36.7172 131.133 38.1861C131.897 39.649 132.014 41.6438 130.987 42.9133C130.172 43.9227 127.768 44.5756 126.543 44.8416C125.69 45.029 124.971 45.1801 124.353 45.2889C123.802 44.4245 123.521 43.3545 123.622 42.3088C122.791 42.9011 122.229 43.9167 122.14 44.9927C122.123 45.2164 129.043 72.618 129.043 72.618C128.33 73.0714 127.448 73.4946 126.431 73.8814C124.707 71.0826 123.291 67.7821 122.359 64.3304C122.145 66.4643 122.179 68.7795 122.437 71.131C122.572 72.3823 122.774 73.6396 123.033 74.897C114.809 76.8072 102.44 76.1785 97.0589 68.0541C97.0579 68.0205 97.057 67.9869 97.0562 67.9532C97.0177 66.433 95.0903 66.0552 94.5746 67.4711C94.444 67.8296 94.3238 68.1398 94.2166 68.3866C92.6494 62.3537 94.6772 55.3718 100.671 43.1853L100.671 43.1853Z" fill="#3A3A3A"/>
<path d="M223.837 214.521H30.119L0.0593262 214.92L210.871 201.376C217.903 200.924 223.837 206.94 223.837 214.521V214.521Z" fill="#222222"/>
<path d="M242.252 49.7291H192.876C191.737 49.7291 190.81 48.7357 190.81 47.5148C190.81 46.294 191.737 45.301 192.876 45.301H242.252C243.391 45.301 244.317 46.294 244.317 47.5148C244.317 48.7357 243.391 49.7291 242.252 49.7291Z" fill="#FF5B00"/>
<path d="M217.545 56.87C217.361 56.3805 216.723 56.3806 216.539 56.8701C215.251 60.2855 213.419 64.1103 211.425 67.0333C211.106 67.5013 211.546 68.1266 212.053 67.9292L216.327 66.2654V94.734H217.757V66.2653L222.032 67.9294C222.539 68.1268 222.979 67.5015 222.66 67.0335C220.666 64.1105 218.833 60.2855 217.545 56.87Z" fill="#222222"/>
<path d="M286.727 66.0025H256.285C255.583 66.0025 255.012 65.39 255.012 64.6373C255.012 63.8846 255.583 63.2725 256.285 63.2725H286.727C287.429 63.2725 288 63.8846 288 64.6373C288 65.39 287.429 66.0025 286.727 66.0025Z" fill="#F6F6F6"/>
<path d="M271.495 70.4053C271.381 70.1035 270.988 70.1035 270.874 70.4053C270.08 72.511 268.95 74.8691 267.721 76.6712C267.525 76.9597 267.796 77.3453 268.109 77.2235L270.743 76.1978V93.7494H271.625V76.1977L274.261 77.2237C274.574 77.3454 274.845 76.9599 274.648 76.6713C273.419 74.8692 272.289 72.511 271.495 70.4053Z" fill="#F6F6F6"/>
<path d="M271.511 110.685C275.164 110.685 278.126 107.498 278.126 103.566C278.126 99.6349 275.164 96.4478 271.511 96.4478C267.858 96.4478 264.896 99.6349 264.896 103.566C264.896 107.498 267.858 110.685 271.511 110.685Z" fill="#F6F6F6"/>
<path d="M189.126 25.6663H158.684C157.982 25.6663 157.411 25.0539 157.411 24.3012C157.411 23.5485 157.982 22.9363 158.684 22.9363H189.126C189.828 22.9363 190.399 23.5485 190.399 24.3012C190.399 25.0539 189.828 25.6663 189.126 25.6663Z" fill="#F6F6F6"/>
<path d="M173.893 30.0688C173.78 29.7671 173.387 29.7671 173.273 30.0689C172.479 32.1746 171.349 34.5327 170.12 36.3348C169.923 36.6233 170.195 37.0089 170.507 36.8871L173.142 35.8613V53.413H174.024V35.8613L176.66 36.8872C176.972 37.009 177.244 36.6234 177.047 36.3349C175.818 34.5328 174.688 32.1746 173.893 30.0688H173.893Z" fill="#F6F6F6"/>
<path d="M173.91 70.3488C177.563 70.3488 180.525 67.1617 180.525 63.2302C180.525 59.2987 177.563 56.1116 173.91 56.1116C170.257 56.1116 167.295 59.2987 167.295 63.2302C167.295 67.1617 170.257 70.3488 173.91 70.3488Z" fill="#F6F6F6"/>
<path d="M97.2182 201.165C98.7791 198.385 97.9501 194.769 95.3665 193.089C95.1162 192.926 94.8542 192.786 94.5829 192.668L94.0351 163.358L86.4644 161.528L87.3516 196.335C86.4355 199.425 88.0208 202.73 90.8925 203.715C93.2954 204.54 95.9106 203.486 97.2182 201.165Z" fill="#FFF2EB"/>
<path d="M102.485 85.5248C102.485 85.5248 93.2072 83.1286 90.2383 89.9178C87.2695 96.7071 87.0168 126.251 87.0168 126.251L85.4139 186.166L97.1823 185.607L106.567 111.883L102.485 85.5248Z" fill="#FF5B00"/>
<path d="M98.3205 210.006C98.5294 210.288 98.8466 210.451 99.1815 210.449H159.427C160.039 210.448 160.535 209.914 160.534 209.255C160.534 209.173 160.526 209.091 160.511 209.011L159.575 204.231C159.497 203.835 159.237 203.509 158.885 203.364C158.76 203.311 158.626 203.284 158.492 203.284H100.113C99.9784 203.284 99.8449 203.311 99.7196 203.364C99.3679 203.509 99.1081 203.835 99.0294 204.231L98.0942 209.011C98.0268 209.363 98.1099 209.728 98.3205 210.006Z" fill="#A2A2A2"/>
<path d="M75.2562 102.991V177.777C75.2577 179.761 76.7522 181.369 78.5962 181.371H181.578C183.422 181.369 184.917 179.761 184.918 177.777V102.991C184.914 101.008 183.421 99.4032 181.578 99.4006H78.5962C76.754 99.4032 75.2606 101.008 75.2562 102.991Z" fill="#F6F6F6"/>
<path d="M142.965 165.378C142.843 165.334 142.713 165.314 142.583 165.314H118.491C117.782 165.314 117.203 165.933 117.203 166.696V207.655H143.867V166.696C143.867 166.093 143.503 165.558 142.965 165.378ZM133.302 185.523C133.294 187.216 132.014 188.582 130.44 188.574C128.878 188.562 127.616 187.204 127.609 185.523V180.77C127.624 179.081 128.911 177.723 130.481 177.739C132.032 177.755 133.287 179.105 133.302 180.77V185.523Z" fill="#A2A2A2"/>
</g>
<defs>
<clipPath id="clip0_314_1525">
<rect width="288" height="215" fill="white"/>
</clipPath>
</defs>
</svg>
